<svg width="619" height="503" viewBox="0 0 619 503" fill="none" xmlns="http://www.w3.org/2000/svg">
<path d="M37.4514 460.444C37.7401 456.895 39.0976 453.516 41.345 450.754C43.4608 447.978 46.3909 445.934 49.7258 444.905C52.5721 444.095 55.6061 444.249 58.3563 445.341C61.1064 446.434 63.4186 448.404 64.9335 450.946C66.2164 448.392 68.2778 446.313 70.8199 445.007C73.3619 443.702 76.2532 443.238 79.076 443.683C82.5096 444.317 85.6593 446.008 88.0854 448.519C90.6489 450.984 92.3923 454.178 93.079 457.668C93.9016 462.126 93.2649 466.731 91.2631 470.798C88.8854 474.936 85.558 478.449 81.5554 481.047C75.0603 485.499 66.5223 491.087 66.5223 491.087C66.5223 491.087 58.7002 485.936 51.7512 482.357C47.4602 480.261 43.7357 477.165 40.891 473.33C38.3868 469.517 37.1804 464.998 37.4514 460.444Z" fill="#EBEBEB"/>
<path d="M524.079 267.599C524.358 264.047 525.716 260.665 527.972 257.908C530.078 255.13 533.004 253.084 536.336 252.059C539.182 251.25 542.216 251.403 544.966 252.495C547.716 253.588 550.028 255.558 551.543 258.1C552.826 255.547 554.888 253.467 557.43 252.162C559.972 250.856 562.863 250.392 565.686 250.837C569.119 251.471 572.269 253.162 574.695 255.673C577.259 258.141 579.007 261.333 579.706 264.822C580.508 269.292 579.853 273.901 577.838 277.97C575.465 282.111 572.137 285.625 568.13 288.219C561.653 292.671 553.097 298.258 553.097 298.258C553.097 298.258 545.293 293.02 538.326 289.528C534.035 287.433 530.311 284.337 527.466 280.501C524.975 276.678 523.787 272.152 524.079 267.599Z" fill="#EBEBEB"/>
<path d="M84.7155 417.091C84.887 414.811 85.7591 412.64 87.2123 410.875C88.5677 409.088 90.448 407.77 92.59 407.104C93.7318 406.792 94.9246 406.713 96.0975 406.872C97.2704 407.031 98.3993 407.425 99.4168 408.029C100.618 408.768 101.629 409.779 102.368 410.98C103.191 409.341 104.515 408.007 106.147 407.172C107.78 406.337 109.636 406.044 111.447 406.336C113.652 406.727 115.676 407.809 117.226 409.426C118.875 411.012 119.996 413.066 120.439 415.31C120.965 418.176 120.548 421.134 119.251 423.743C117.729 426.403 115.591 428.66 113.018 430.326C108.845 433.189 103.363 436.786 103.363 436.786C103.363 436.786 98.3343 433.469 93.8645 431.129C91.1069 429.782 88.712 427.795 86.8805 425.332C85.2937 422.888 84.5346 419.999 84.7155 417.091Z" fill="#F5F5F5"/>
<path d="M494.205 310.341C494.388 308.063 495.258 305.896 496.702 304.125C498.06 302.344 499.94 301.032 502.079 300.371C503.909 299.866 505.853 299.972 507.618 300.671C509.382 301.371 510.87 302.626 511.857 304.247C512.435 303.104 513.258 302.103 514.267 301.314C515.201 300.585 516.275 300.055 517.422 299.754C518.568 299.454 519.764 299.391 520.936 299.568C523.141 299.973 525.162 301.06 526.716 302.676C528.367 304.259 529.489 306.314 529.928 308.56C530.453 311.425 530.036 314.384 528.741 316.993C527.223 319.657 525.085 321.915 522.508 323.575C518.335 326.421 512.852 330.018 512.852 330.018C512.852 330.018 507.841 326.718 503.354 324.361C500.593 323.02 498.196 321.031 496.37 318.564C494.785 316.126 494.025 313.243 494.205 310.341Z" fill="#F5F5F5"/>
<path d="M582.465 398.601C582.637 396.321 583.509 394.15 584.962 392.385C586.318 390.598 588.198 389.279 590.34 388.614C591.482 388.302 592.674 388.223 593.847 388.382C595.02 388.541 596.149 388.935 597.167 389.539C598.368 390.278 599.379 391.289 600.117 392.49C600.936 390.848 602.259 389.511 603.893 388.675C605.527 387.839 607.386 387.548 609.197 387.846C611.396 388.253 613.416 389.333 614.976 390.936C616.625 392.522 617.746 394.576 618.189 396.82C618.706 399.686 618.29 402.642 617.001 405.253C615.477 407.918 613.333 410.176 610.751 411.836C606.595 414.699 601.095 418.296 601.095 418.296C601.095 418.296 596.084 414.978 591.614 412.639C588.857 411.292 586.462 409.305 584.63 406.842C583.043 404.398 582.284 401.509 582.465 398.601Z" fill="#EBEBEB"/>
<path d="M96.3265 489.445C96.4438 487.945 97.0233 486.517 97.9852 485.36C98.8632 484.186 100.083 483.314 101.477 482.863C102.231 482.657 103.018 482.605 103.792 482.71C104.566 482.815 105.311 483.075 105.982 483.474C106.769 483.969 107.432 484.638 107.92 485.43C108.304 484.677 108.846 484.016 109.509 483.491C110.127 483.014 110.836 482.667 111.592 482.472C112.349 482.277 113.137 482.238 113.909 482.357C115.361 482.618 116.694 483.333 117.715 484.399C118.818 485.434 119.579 486.78 119.897 488.258C120.238 490.151 119.963 492.103 119.112 493.828C118.108 495.587 116.695 497.079 114.991 498.175C112.25 500.061 108.618 502.418 108.618 502.418C108.618 502.418 105.318 500.236 102.368 498.699C100.558 497.803 98.9846 496.493 97.7757 494.875C96.7214 493.268 96.2132 491.364 96.3265 489.445Z" fill="#F5F5F5"/>
<path d="M1.85033 66.9831C1.85033 66.9831 -6.19873 73.9671 11.2787 90.0478C20.1192 98.4565 29.5102 106.267 39.3893 113.427C39.3893 113.427 42.8813 117.373 39.2846 119.52C35.6878 121.668 26.661 123.449 26.661 128.844C26.661 134.239 31.899 137.766 40.7512 139.163C49.6034 140.56 68.6872 144.401 70.311 144.68C71.9347 144.959 74.1871 146.653 71.9522 148.521C69.7173 150.39 51.2272 159.486 56.0811 167.989C60.9349 176.492 85.9726 176.387 88.7138 176.44C91.455 176.492 92.3979 177.278 92.6947 178.675C92.9915 180.072 86.4789 182.533 81.3282 185.327C76.1775 188.121 70.6951 192.311 73.8903 196.973C77.0855 201.635 94.1788 207.658 127.091 199.051L142.089 194.074L145.581 178.57C150.924 144.977 143.276 128.565 138.3 125.841C133.324 123.117 129.727 128.966 127.44 134.361C125.153 139.756 123.337 146.478 121.923 146.339C120.508 146.199 119.618 145.309 119.304 142.585C118.989 139.861 116.667 114.928 107.71 110.947C98.7533 106.967 91.5249 126.242 89.8836 128.652C88.2424 131.061 86.3916 129.036 85.9027 127.395C85.4139 125.753 79.7743 107.089 77.5219 98.4984C75.2696 89.9081 71.4459 84.9844 65.8761 85.5082C60.3064 86.032 59.6254 95.1985 57.8271 99.0047C56.0287 102.811 51.7685 99.7206 51.7685 99.7206C43.6584 90.5794 34.9437 81.9931 25.6832 74.0195C7.92641 58.3055 1.69318 67.1402 1.69318 67.1402" fill="#EBEBEB"/>
<path d="M144.097 197.27C131.107 185.606 108.356 164.497 88.7314 146.479C69.1063 128.46 51.3321 112.152 38.3942 100.437L23.0643 86.5733C21.3183 84.932 19.8517 83.6749 18.8914 82.7844L17.8089 81.8067L17.4597 81.4575C17.5942 81.5478 17.7225 81.6469 17.8438 81.7543C18.1057 81.9987 18.4898 82.313 18.9612 82.7146L23.1691 86.4161C26.8357 89.6462 32.1086 94.343 38.6037 100.175C51.6114 111.838 69.4206 128.111 89.0457 146.112C108.671 164.113 131.421 185.292 144.341 197.008" fill="#E0E0E0"/>
<path d="M39.3892 126.836C39.801 126.787 40.2171 126.787 40.6289 126.836H43.7368C46.3558 126.836 49.9874 126.836 53.9858 127.08L64.2173 127.534L67.3252 127.657C67.7027 127.622 68.0826 127.622 68.4601 127.657C68.0871 127.735 67.7063 127.77 67.3252 127.761C66.5744 127.761 65.5792 127.761 64.1999 127.761C61.5809 127.761 57.9666 127.604 53.9683 127.447L43.7193 127.046L40.6289 126.941C40.2129 126.96 39.7961 126.925 39.3892 126.836Z" fill="#E0E0E0"/>
<path d="M69.0362 126.312C68.8965 126.312 68.7394 118.822 68.687 109.603C68.6346 100.384 68.687 92.8763 68.8442 92.8763C69.0013 92.8763 69.1235 100.367 69.1759 109.586C69.2283 118.804 69.1585 126.312 69.0362 126.312Z" fill="#E0E0E0"/>
<path d="M97.9154 155.331C97.9663 154.945 98.054 154.565 98.1773 154.196C98.4217 153.393 98.7011 152.45 99.0503 151.158C99.7836 148.574 100.796 145.012 101.722 141.048C102.647 137.085 103.468 133.471 103.939 130.834C104.201 129.612 104.393 128.565 104.568 127.726C104.614 127.338 104.708 126.957 104.847 126.592C104.862 126.984 104.833 127.376 104.76 127.761C104.655 128.512 104.515 129.507 104.288 130.904C103.852 133.541 103.171 137.19 102.211 141.171C101.25 145.152 100.203 148.696 99.382 151.263C98.963 152.537 98.6313 153.55 98.3694 154.266C98.2617 154.638 98.1093 154.995 97.9154 155.331Z" fill="#E0E0E0"/>
<path d="M71.2191 161.756C71.538 161.587 71.8789 161.464 72.2318 161.389L75.0604 160.604C77.4524 159.94 80.7523 159.085 84.4189 158.159C88.0855 157.234 91.4029 156.413 93.8124 155.855L96.6584 155.209C97.008 155.121 97.3642 155.063 97.7234 155.034C97.4022 155.197 97.0621 155.32 96.7107 155.401L93.8997 156.186C91.5077 156.85 88.1903 157.705 84.5411 158.631C80.892 159.556 77.5571 160.377 75.1476 160.935L72.2842 161.581C71.9348 161.67 71.5785 161.728 71.2191 161.756Z" fill="#E0E0E0"/>
<path d="M93.4628 190.6C93.8835 190.411 94.3222 190.265 94.7723 190.163L98.3865 189.133C101.442 188.278 105.667 187.143 110.347 185.903C115.026 184.664 119.269 183.581 122.359 182.813L126.008 181.94C126.448 181.815 126.898 181.727 127.353 181.678C126.938 181.871 126.505 182.023 126.061 182.132L122.446 183.162C119.391 184 115.148 185.152 110.469 186.375C105.79 187.597 101.547 188.697 98.4738 189.465L94.8246 190.338C94.3817 190.475 93.9249 190.563 93.4628 190.6Z" fill="#E0E0E0"/>
<path d="M126.498 181.66C126.551 181.169 126.65 180.684 126.794 180.211C127.039 179.216 127.353 177.889 127.755 176.318C128.558 173.018 129.658 168.461 130.723 163.397C131.788 158.334 132.661 153.707 133.255 150.372C133.551 148.766 133.796 147.439 133.97 146.409C134.038 145.918 134.143 145.434 134.285 144.959C134.285 145.457 134.244 145.953 134.163 146.444C134.04 147.386 133.866 148.748 133.604 150.424C133.097 153.794 132.294 158.421 131.212 163.485C130.129 168.548 128.977 173.122 128.086 176.405C127.632 178.046 127.248 179.356 126.969 180.264C126.842 180.739 126.684 181.205 126.498 181.66Z" fill="#E0E0E0"/>
<path d="M495.078 164.166C471.891 143.86 469.621 110.598 473.777 81.44C474.475 76.5512 474.493 71.3307 477.269 67.28C480.045 63.2292 485.807 60.8896 489.98 63.4213C493.472 65.534 494.554 69.9339 496.213 73.6529C498.421 78.6195 501.993 82.8577 506.514 85.8749C509.465 87.8304 513.219 89.2272 516.484 87.8653C520.954 85.9971 522.071 80.2178 522.577 75.329C523.497 66.2498 524.417 57.1648 525.336 48.074C525.564 43.1739 526.591 38.3439 528.374 33.7742C530.382 29.3045 534.188 25.376 538.972 24.5728C543.756 23.7696 549.187 27.0696 549.64 31.9409C549.619 33.9759 549.45 36.0066 549.134 38.017C548.972 39.0382 549.122 40.0847 549.564 41.0193C550.006 41.954 550.721 42.7332 551.613 43.255C553.499 44.0407 555.594 42.8709 557.201 41.509C562.753 37.1265 566.856 31.1552 570.732 25.2014C574.608 19.2475 578.397 13.0492 583.635 8.10802C588.873 3.16684 595.543 -0.325161 602.562 0.0240386C609.581 0.373239 616.53 5.48902 617.577 12.5254C618.625 19.5618 613.841 26.1267 608.847 31.2076C601.491 38.7757 593.082 45.2442 583.88 50.4136C582.116 51.1544 580.636 52.439 579.654 54.0802C578.24 57.2055 580.981 60.7674 584.072 62.1816C587.564 63.7705 591.544 63.8229 595.298 64.6784C599.052 65.534 602.981 67.6641 604.028 71.4005C605.495 76.6385 600.763 81.3702 596.294 84.3384C587.351 90.3092 577.446 94.692 567.013 97.2937C563.294 98.2191 559.401 99.0397 556.24 101.17C553.08 103.3 550.81 107.63 552.207 111.122C553.604 114.614 557.951 116.36 561.775 116.046C565.599 115.731 569.196 114.073 572.915 113.112C579.899 111.366 588.471 112.693 592.121 118.944C593.216 121.076 593.803 123.432 593.833 125.829C593.863 128.226 593.337 130.596 592.295 132.755C590.168 137.05 587.199 140.874 583.565 143.999C571.577 155.6 556.725 163.812 540.526 167.797C524.428 171.499 509.884 171.411 495.043 164.113" fill="#F5F5F5"/>
<path d="M504.646 146.583C511.243 131.125 518.716 116.056 527.029 101.449C529.229 97.5556 531.377 93.7144 533.507 89.9256C535.637 86.1368 537.767 82.4003 540.055 78.8559C544.486 72.0761 549.283 65.5423 554.424 59.2833C559.296 53.277 564.132 47.7597 568.689 42.6264C573.246 37.4932 577.629 32.8139 581.784 28.6584C588.286 22.1503 595.291 16.1662 602.736 10.7619C605.373 8.84133 607.468 7.42707 608.899 6.48423L610.541 5.41917C610.72 5.28784 610.913 5.1766 611.117 5.08743C610.954 5.24066 610.778 5.38077 610.593 5.50647L609.004 6.64137C607.607 7.61913 605.512 9.08577 602.946 11.0413C595.582 16.5426 588.637 22.5829 582.168 29.1124C578.065 33.2504 573.735 37.9472 569.195 43.0804C564.656 48.2136 559.854 53.7659 555.018 59.7721C549.901 66.0062 545.138 72.5233 540.753 79.2924C538.466 82.7844 536.371 86.5209 534.24 90.3097L527.763 101.833C519.463 116.408 511.984 131.436 505.362 146.845" fill="#E0E0E0"/>
<path d="M540.317 78.8559C540.169 78.155 540.088 77.4419 540.072 76.7258C539.95 75.3465 539.863 73.356 539.776 70.8942C539.619 65.9705 539.619 59.1611 539.653 51.6882C539.688 44.2153 539.653 37.3884 539.357 32.4822C539.234 30.0203 539.13 28.0299 539.025 26.668C538.938 25.9548 538.938 25.2336 539.025 24.5204C539.22 25.2107 539.349 25.9182 539.409 26.6331C539.619 27.995 539.828 29.9854 540.02 32.4298C540.422 37.3535 540.614 44.1629 540.579 51.6358C540.544 59.1087 540.492 65.7435 540.457 70.8418V76.6734C540.501 77.4039 540.454 78.137 540.317 78.8559Z" fill="#E0E0E0"/>
<path d="M604.22 73.8973C603.378 73.968 602.531 73.968 601.689 73.8973C600.065 73.8973 597.708 73.8973 594.809 73.8973C589.013 73.8973 580.998 74.1767 572.111 74.8751C563.224 75.5735 555.315 76.6211 549.57 77.4592C546.69 77.8782 544.332 78.2798 542.779 78.5417C541.952 78.7285 541.111 78.8453 540.264 78.8909C541.053 78.5753 541.872 78.3413 542.709 78.1925C544.298 77.8258 546.602 77.3195 549.466 76.8131C555.21 75.783 563.189 74.683 572.041 73.9671C579.591 73.3462 587.166 73.1072 594.739 73.2513C597.638 73.2513 599.977 73.4608 601.619 73.6005C602.494 73.6126 603.365 73.712 604.22 73.8973Z" fill="#E0E0E0"/>
<path d="M505.537 145.501C505.383 145.251 505.265 144.981 505.187 144.698L504.367 142.323C503.651 140.245 502.621 137.225 501.591 133.471C499.338 125.963 496.562 115.504 493.646 103.928C490.73 92.3525 488.059 81.8765 485.964 74.3338L483.467 65.4117C483.205 64.4514 482.978 63.6657 482.804 62.9848C482.705 62.7035 482.646 62.4096 482.629 62.1118C482.766 62.376 482.883 62.6503 482.978 62.9324C483.188 63.5784 483.467 64.3641 483.799 65.307C484.515 67.3847 485.458 70.4053 486.575 74.1592C488.827 81.6495 491.603 92.1081 494.519 103.702C497.435 115.295 500.106 125.753 502.202 133.384L504.699 142.306C504.96 143.266 505.187 144.052 505.362 144.733C505.451 144.981 505.51 145.239 505.537 145.501Z" fill="#E0E0E0"/>
<path d="M591.649 127.657C591.381 127.788 591.091 127.871 590.794 127.901L588.297 128.46L579.061 130.38C571.273 132.022 560.553 134.379 548.698 137.033C536.842 139.687 526 141.939 518.247 143.406C514.336 144.156 511.159 144.715 508.959 145.152L506.427 145.518C506.132 145.568 505.831 145.568 505.536 145.518C505.815 145.414 506.101 145.333 506.392 145.274L508.906 144.733L518.125 142.794C525.912 141.171 536.65 138.796 548.506 136.16C560.361 133.523 571.116 131.236 578.938 129.769C582.849 129.036 586.027 128.477 588.227 128.128L590.759 127.744C591.051 127.677 591.35 127.647 591.649 127.657Z" fill="#E0E0E0"/>
</svg>
