<svg width="738" height="508" viewBox="0 0 738 508" fill="none" xmlns="http://www.w3.org/2000/svg">
<path d="M515.274 54.1534C516.229 37.9855 517.195 21.8175 518.173 5.64951C518.295 3.69399 518.592 1.44165 520.268 0.411509C521.085 0.0893774 521.963 -0.0464248 522.839 0.0139858C523.715 0.0743964 524.566 0.329519 525.331 0.76073C554.001 12.3018 575.04 44.2885 577.554 75.0705" fill="#FFBF5B"/>
<g opacity="0.3">
<path opacity="0.3" d="M525.016 17.173C531.732 21.5735 537.338 27.4678 541.397 34.3951C545.456 41.3223 547.857 49.0946 548.413 57.104C548.731 59.0392 548.32 61.0237 547.26 62.6738C546.716 63.2655 546.055 63.7373 545.318 64.059C544.582 64.3807 543.786 64.5452 542.983 64.542C541.373 64.5245 539.774 64.2776 538.234 63.8087C534.375 62.8135 530.307 61.7309 527.443 58.9373C524.826 56.163 523.327 52.5187 523.235 48.7058C523.166 44.925 523.553 41.1497 524.388 37.4615L529.277 45.8074L524.039 18.7793C523.956 18.542 523.926 18.2896 523.95 18.0395C523.974 17.7894 524.052 17.5474 524.178 17.3302C524.475 16.946 525.313 17.0857 525.261 17.5746" fill="white"/>
</g>
<path d="M349.072 88.5844C334.11 70.8206 325.508 48.5702 324.628 25.3618L340.604 32.8871L336.605 28.0157C359.919 29.9592 381.551 40.929 396.895 58.5882" fill="#FFBF5B"/>
<g opacity="0.3">
<path opacity="0.3" d="M357.924 81.5306C351.65 76.9706 346.378 71.1716 342.435 64.4924C338.491 57.8133 335.961 50.396 334.999 42.6995C334.877 41.6519 334.999 40.2726 335.977 39.9234C336.341 39.8595 336.716 39.8782 337.072 39.9779C337.429 40.0776 337.759 40.2558 338.037 40.4996L366.864 59.3389C365.611 57.5414 364.831 55.4581 364.594 53.2803L376.816 62.2373C377.28 62.4954 377.689 62.8427 378.018 63.2592C378.348 63.6757 378.592 64.1532 378.736 64.6642C378.743 65.2389 378.611 65.8067 378.353 66.32C378.095 66.8334 377.717 67.2775 377.252 67.615C375.216 69.4529 372.738 70.7312 370.061 71.3249C367.383 71.9186 364.597 71.8074 361.975 71.0022L367.213 75.5593C365.653 76.567 363.905 77.2489 362.075 77.5639C360.244 77.879 358.369 77.8207 356.562 77.3926C356.385 78.2536 356.47 79.1479 356.807 79.9601C357.143 80.7724 357.714 81.4653 358.448 81.9496" fill="white"/>
</g>
<path d="M674.684 240.958C674.684 240.958 697.033 264.058 707.194 262.137C707.194 262.137 671.89 224.581 657.049 189.922C649.961 173.533 641.516 157.764 631.802 142.78C638.489 131.257 644.443 118.214 647.167 105.032C639.661 113.738 631.104 121.479 621.693 128.079C620.924 126.997 620.139 125.932 619.336 124.849C627.233 117.704 632.497 108.11 634.281 97.6115L598.995 96.0924C600.1 94.5021 601.097 92.8397 601.98 91.1164C584.646 76.2175 565.237 63.9191 544.362 54.6075C503.768 31.5079 413.412 23.8779 369.413 61.4344C330.006 84.4117 319.443 113.814 288.399 121.095L269.996 119.087C269.996 119.087 262.837 157.499 286.356 174.662L268.896 170.612C268.896 170.612 272.109 185.907 289.289 202.773L278.569 201.464C278.569 201.464 283.213 225.523 298.054 231.303C298.054 231.303 274.867 234.201 268.372 225.523C268.372 225.523 260.655 261.491 295.767 275.057C295.767 275.057 190.553 287.384 220.13 416.187C227.114 446.27 268.582 467.921 316.335 478.379L660.297 477.035C681.249 470.19 706.251 400.769 707.177 372.851C708.102 344.932 694.204 290.998 694.204 290.998L707.229 308.336L674.684 240.958Z" fill="#FFBF5B"/>
<path d="M281.555 294.63C261.807 293.443 242.409 308.79 239.04 328.293C251.887 319.771 266.558 314.388 281.869 312.579C275.839 318.125 271.636 325.372 269.818 333.361C268 341.35 268.653 349.702 271.69 357.311C274.235 350.51 278.135 344.297 283.153 339.047C288.171 333.798 294.203 329.623 300.883 326.774C296.32 332.277 293.254 338.865 291.982 345.9C290.71 352.935 291.274 360.179 293.62 366.932" fill="#FFBF5B"/>
<path d="M293.619 366.967C293.501 366.738 293.408 366.499 293.34 366.251C293.183 365.779 292.903 365.081 292.624 364.156C291.855 361.408 291.375 358.587 291.192 355.74C290.924 351.239 291.378 346.723 292.537 342.366C294.053 336.601 296.812 331.237 300.621 326.652L301.022 327.193C294.407 330.05 288.436 334.211 283.465 339.428C278.494 344.645 274.626 350.81 272.091 357.556L271.707 358.603L271.288 357.573C269.177 352.26 268.201 346.564 268.42 340.852C268.64 335.139 270.051 329.535 272.562 324.399C274.775 319.864 277.832 315.793 281.572 312.404L281.921 313.19C266.684 314.987 252.074 320.308 239.249 328.729L238.48 329.236L238.655 328.328C239.431 324.114 240.906 320.06 243.02 316.333C244.893 312.956 247.246 309.868 250.004 307.166C254.411 302.706 259.738 299.262 265.613 297.074C269.371 295.667 273.322 294.843 277.329 294.63C278.726 294.63 279.791 294.63 280.489 294.63H281.31H281.572H281.31H280.489C279.773 294.63 278.743 294.63 277.346 294.63C273.379 294.934 269.478 295.823 265.77 297.266C259.995 299.488 254.771 302.938 250.458 307.376C247.771 310.055 245.484 313.107 243.666 316.437C241.618 320.106 240.191 324.089 239.441 328.223L238.83 327.821C251.742 319.299 266.469 313.918 281.834 312.107L283.248 311.95L282.183 312.893C278.557 316.21 275.595 320.186 273.453 324.609C270.981 329.638 269.589 335.128 269.367 340.727C269.144 346.326 270.096 351.91 272.161 357.119H271.358C274.123 349.807 278.435 343.178 283.999 337.686C288.841 332.895 294.554 329.073 300.83 326.425L302.157 325.866L301.232 326.966C297.452 331.465 294.694 336.731 293.148 342.4C291.967 346.702 291.466 351.162 291.664 355.618C291.8 358.441 292.221 361.243 292.921 363.981C293.148 364.924 293.392 365.64 293.514 366.111C293.577 366.392 293.613 366.679 293.619 366.967V366.967Z" fill="#263238"/>
<path d="M642.086 348.808C652.746 346.553 663.857 348.039 673.55 353.016C683.242 357.992 690.925 366.156 695.304 376.133" fill="#FFBF5B"/>
<path d="M695.304 376.133C695.129 376.22 693.785 372.816 690.38 368.084C685.943 361.915 680.104 356.889 673.344 353.419C666.584 349.95 659.096 348.136 651.497 348.127C645.665 348.127 642.103 349 642.086 348.808C642.883 348.518 643.708 348.313 644.548 348.197C646.851 347.763 649.188 347.529 651.532 347.499C659.266 347.324 666.922 349.082 673.806 352.612C680.69 356.143 686.585 361.334 690.956 367.717C692.286 369.631 693.454 371.652 694.448 373.759C694.823 374.515 695.11 375.312 695.304 376.133V376.133Z" fill="#263238"/>
<g opacity="0.3">
<path opacity="0.3" d="M520.809 377.827C508.133 379.852 492 389.438 486.116 400.804C484.859 403.231 486.011 403.563 486.116 406.287C486.118 407.659 486.505 409.004 487.233 410.168C487.962 411.332 489.002 412.267 490.236 412.869C490.862 413.123 491.534 413.243 492.209 413.221C492.883 413.198 493.546 413.035 494.153 412.74C494.761 412.445 495.3 412.026 495.735 411.51C496.17 410.994 496.492 410.392 496.679 409.744C495.165 419.047 497.196 428.579 502.371 436.457C505.937 434.447 508.811 431.403 510.612 427.727C510.281 434.549 511.349 441.366 513.751 447.758C516.153 454.151 519.839 459.985 524.58 464.9L518.399 440.787C516.182 432.057 514.034 424.637 514.628 415.68C515.257 406.112 520.949 398.045 525.366 390.119C519.29 392.755 512.254 404.698 506.265 411.978C505.906 405.642 506.991 399.307 509.438 393.452C511.884 387.596 515.629 382.373 520.39 378.176" fill="black"/>
</g>
<path d="M518.434 441.067C518.234 440.742 518.07 440.397 517.945 440.037C517.683 439.338 517.177 438.291 516.758 436.946C515.448 433.027 514.656 428.954 514.401 424.829C513.987 418.55 514.727 412.247 516.583 406.234C518.867 398.592 522.944 391.606 528.474 385.859L529.085 386.487C523.981 391.061 519.137 395.917 514.576 401.031C511.628 404.394 509.026 408.044 506.806 411.926L506.125 413.131L505.968 411.769C505.196 404.568 506.504 397.297 509.739 390.817C512.417 385.326 516.397 380.572 521.333 376.971L521.664 377.565C518.195 378.857 515.015 380.821 512.306 383.344C510.263 385.239 508.499 387.414 507.068 389.805C506.16 391.327 505.377 392.921 504.728 394.571C504.542 395.166 504.32 395.749 504.065 396.317C504.045 396.166 504.045 396.014 504.065 395.863C504.152 395.549 504.257 395.095 504.449 394.519C505.024 392.814 505.767 391.171 506.666 389.612C508.081 387.148 509.845 384.901 511.904 382.943C514.645 380.34 517.873 378.305 521.402 376.954L523.742 376.063L521.717 377.548C516.955 381.136 513.128 385.82 510.56 391.201C507.451 397.545 506.198 404.639 506.946 411.664L506.107 411.49C508.358 407.557 510.989 403.855 513.964 400.438C518.552 395.296 523.432 390.423 528.578 385.841L529.19 386.47C523.741 392.108 519.697 398.951 517.387 406.444C515.511 412.371 514.719 418.587 515.047 424.794C515.249 428.885 515.947 432.936 517.125 436.859C517.509 438.238 517.963 439.251 518.172 439.967C518.283 440.328 518.37 440.695 518.434 441.067Z" fill="#263238"/>
<path d="M311.271 439.216C318.129 446.826 327.154 452.151 337.13 454.476C337.672 454.693 338.261 454.765 338.84 454.686C339.418 454.606 339.966 454.378 340.43 454.023C341.442 452.905 340.604 451.142 339.766 449.902L328.679 433.524C336.572 439.763 345.931 443.874 355.864 445.467C357.523 445.729 359.566 445.729 360.404 444.297C360.643 443.667 360.731 442.99 360.661 442.32C360.592 441.65 360.366 441.006 360.002 440.439C358.256 436.702 356.51 433.018 354.45 429.421" fill="#FFBF5B"/>
<path d="M354.45 429.351C354.664 429.62 354.845 429.913 354.991 430.224L356.388 432.843C357.017 434.013 357.733 435.41 358.571 436.999C359.013 437.813 359.467 438.686 359.933 439.618C360.514 440.596 360.888 441.684 361.033 442.813C361.081 443.488 360.883 444.158 360.474 444.698C360.025 445.233 359.41 445.602 358.728 445.746C357.378 445.952 356.001 445.887 354.677 445.554C351.792 445.059 348.949 444.341 346.174 443.406C339.746 441.261 333.738 438.018 328.417 433.821L329.081 433.21L331.001 436.056L337.182 445.205L340.133 449.552C340.657 450.298 341.041 451.132 341.268 452.014C341.401 452.5 341.377 453.015 341.198 453.486C341.019 453.957 340.695 454.359 340.273 454.633C339.452 455.048 338.508 455.148 337.619 454.913C336.798 454.773 336.065 454.528 335.297 454.354C333.778 453.917 332.328 453.463 330.966 452.94C328.418 451.982 325.953 450.814 323.598 449.448C320.184 447.485 317.023 445.11 314.187 442.376C313.192 441.398 312.441 440.63 311.987 440.054C311.724 439.782 311.49 439.484 311.289 439.164C311.595 439.382 311.876 439.634 312.127 439.914C312.634 440.438 313.402 441.189 314.432 442.114C317.329 444.72 320.509 446.992 323.913 448.889C326.257 450.2 328.704 451.322 331.228 452.241C332.59 452.748 334.022 453.184 335.506 453.603C336.99 454.022 338.649 454.598 339.836 453.935C340.113 453.749 340.321 453.478 340.428 453.162C340.536 452.847 340.536 452.505 340.43 452.189C340.224 451.42 339.874 450.697 339.4 450.059C338.439 448.644 337.462 447.195 336.449 445.729C334.447 442.76 332.381 439.711 330.251 436.58L328.33 433.734L326.584 431.289L328.976 433.105C336.506 439.062 345.376 443.089 354.817 444.838C356.046 445.166 357.327 445.249 358.588 445.083C359.121 445.013 359.606 444.743 359.947 444.328C360.287 443.913 360.457 443.383 360.421 442.848C360.301 441.791 359.968 440.77 359.444 439.845C358.99 438.919 358.553 438.099 358.152 437.208L356.109 433L354.852 430.311C354.675 430.011 354.54 429.688 354.45 429.351Z" fill="#263238"/>
<g opacity="0.3">
<path opacity="0.3" d="M354.345 330.58C358.204 337.092 363.852 342.359 370.617 345.753C370.231 342.166 368.743 338.787 366.357 336.08C373.725 343.098 382.455 348.53 392.006 352.039C387.939 353.85 383.5 354.668 379.055 354.427C374.609 354.186 370.285 352.892 366.438 350.651C362.591 348.41 359.332 345.287 356.929 341.54C354.525 337.792 353.047 333.527 352.616 329.096" fill="black"/>
</g>
<g opacity="0.3">
<path opacity="0.3" d="M307.622 216.793C321.485 243.455 366.323 256.619 401.487 257.196C412.347 257.353 427.677 265.384 438.432 264.337C462.58 262.015 482.187 249.007 506.387 246.877C521.455 245.602 536.61 245.131 551.503 242.599C566.397 240.067 565.716 238.304 577.554 228.893C589.392 219.482 602.19 210.158 601.998 195.038C579.754 222.276 557.771 230.709 523.532 238.688C489.293 246.667 453.692 246.493 418.58 244.869C379.941 243.123 339.382 238.863 307.622 216.776" fill="black"/>
</g>
<path d="M426.908 12.3018C427.065 12.3018 427.205 14.2747 427.729 17.4001C428.421 21.4675 429.532 25.4522 431.046 29.2903C432.595 33.1211 434.532 36.7834 436.825 40.2203C437.87 41.5891 438.844 43.0111 439.741 44.4805C439.741 44.4805 439.34 44.1837 438.729 43.5202C437.859 42.5942 437.048 41.6146 436.302 40.587C433.818 37.2089 431.77 33.5307 430.208 29.6395C428.642 25.7189 427.598 21.6099 427.1 17.4175C426.936 16.1609 426.843 14.8959 426.821 13.6287C426.786 13.1845 426.815 12.7376 426.908 12.3018V12.3018Z" fill="#FFBF5B"/>
<path d="M438.311 7.9543C438.468 7.9543 437.769 9.70029 437.088 12.6161C436.227 16.3809 435.939 20.254 436.233 24.1048C436.548 27.9497 437.449 31.7239 438.904 35.2966C440.022 38.0553 440.982 39.6442 440.842 39.714C440.703 39.7838 440.51 39.3823 440.039 38.6839C439.382 37.6855 438.799 36.641 438.293 35.5585C434.942 28.3249 434.292 20.1306 436.46 12.459C436.771 11.3111 437.174 10.19 437.665 9.10666C438.031 8.26858 438.258 7.84954 438.311 7.9543Z" fill="#FFBF5B"/>
<path d="M224.617 298.139C224.825 297.888 225.059 297.66 225.316 297.458C225.787 297.039 226.468 296.376 227.428 295.712C230.111 293.58 232.947 291.649 235.914 289.933C245.768 284.349 256.493 280.465 267.639 278.444C278.751 276.421 290.009 275.3 301.301 275.092C305.632 274.987 309.124 274.952 311.533 274.952H314.327C314.652 274.925 314.979 274.925 315.304 274.952C314.985 275.032 314.656 275.073 314.327 275.075L311.551 275.214L301.319 275.651C290.081 276.009 278.884 277.176 267.813 279.143C256.762 281.161 246.101 284.921 236.228 290.282C233.264 291.95 230.401 293.793 227.655 295.8C225.717 297.354 224.67 298.192 224.617 298.139Z" fill="#FFBF5B"/>
<path d="M474.906 15.532C474.906 15.6891 471.92 14.6939 467.066 13.5066C464.244 12.8125 461.347 12.4665 458.441 12.4765C454.91 12.5011 451.452 13.4848 448.436 15.3225C446.905 16.2758 445.571 17.5147 444.508 18.9716C443.551 20.3496 442.881 21.9049 442.535 23.5461C442.035 26.3908 442.16 29.31 442.901 32.1015C444.106 36.9205 445.398 39.7839 445.224 39.8538C444.827 39.2361 444.505 38.5739 444.263 37.8808C443.471 36.0549 442.806 34.1763 442.273 32.2587C441.421 29.3819 441.23 26.3499 441.714 23.389C442.056 21.624 442.758 19.9482 443.774 18.4653C444.899 16.8991 446.316 15.5652 447.947 14.5368C451.105 12.6234 454.731 11.6203 458.423 11.6384C461.376 11.667 464.312 12.0898 467.153 12.8955C469.58 13.5416 471.501 14.205 472.828 14.6415C473.549 14.8678 474.245 15.1661 474.906 15.532Z" fill="#FFBF5B"/>
<path d="M736.858 453.079C734.973 440.543 728.827 428.199 718.333 421.058C707.84 413.917 692.737 413.079 682.75 420.918L641.3 476.965L729.543 477.331C734.466 472.774 737.854 459.714 736.858 453.079Z" fill="#FFBF5B"/>
<g opacity="0.3">
<path opacity="0.3" d="M678.176 476.161C685.631 473.054 691.131 466.366 694.518 459.033C697.905 451.7 699.389 443.668 700.874 435.724C702.096 429.142 703.248 422.035 700.385 415.959C699.701 415.922 699.02 416.064 698.408 416.37C697.795 416.676 697.273 417.136 696.893 417.705C696.126 418.864 695.565 420.145 695.234 421.494C688.407 443.04 677.879 461.652 660.681 476.231" fill="black"/>
</g>
<g opacity="0.3">
<path opacity="0.3" d="M416.066 38.3521C424.796 63.5119 425.896 90.7321 424.953 117.254C424.482 130.488 423.487 143.863 419.349 156.451C415.211 169.04 407.616 180.895 396.336 187.879C385.686 194.462 372.521 196.19 360.089 194.549C347.658 192.908 335.855 188.141 324.663 182.519C311.882 176.094 299.573 168.412 289.656 158.075C279.739 147.739 271.602 133.3 269.961 119.105L288.364 121.112C288.364 121.112 302.524 119.611 324.541 98.3097C348.601 75.053 352.983 72.207 371.002 60.0897C384.976 50.8485 400.135 43.5365 416.066 38.3521V38.3521Z" fill="white"/>
</g>
<g opacity="0.3">
<path opacity="0.3" d="M492.122 193.432C495.603 191.469 499.63 190.699 503.589 191.238C507.548 191.777 511.223 193.596 514.052 196.418C516.853 192.757 520.642 189.973 524.973 188.395C529.304 186.817 533.996 186.511 538.496 187.513C533.04 189.659 527.959 192.659 523.445 196.4C519.133 200.364 516.025 206.056 516.566 211.887C511.171 206.076 504.967 201.072 498.146 197.029C495.317 195.283 491.598 193.869 488.944 195.824" fill="black"/>
</g>
<path d="M552.254 390.136C542.119 397.412 534.648 407.809 530.987 419.736C527.326 431.663 527.676 444.461 531.983 456.17" fill="#FFBF5B"/>
<path d="M531.983 456.17C531.84 455.96 531.728 455.731 531.651 455.489C531.476 455.018 531.18 454.354 530.883 453.446C530.032 450.924 529.384 448.337 528.945 445.711C527.42 437.001 527.978 428.053 530.573 419.598C533.167 411.144 537.725 403.424 543.873 397.068C545.711 395.162 547.702 393.41 549.827 391.83C550.56 391.254 551.189 390.852 551.573 390.573C551.957 390.293 552.219 390.171 552.236 390.206C551.532 390.88 550.792 391.515 550.019 392.109C548.009 393.809 546.107 395.634 544.327 397.574C538.384 403.955 533.967 411.6 531.409 419.936C528.85 428.271 528.217 437.078 529.556 445.694C529.944 448.299 530.498 450.877 531.215 453.411C531.533 454.312 531.789 455.234 531.983 456.17V456.17Z" fill="#263238"/>
<path d="M586.983 329.69C594.124 324.207 603.343 318.446 611.427 322.304C613.666 323.532 615.586 325.268 617.032 327.372C618.479 329.477 619.411 331.891 619.755 334.421C620.383 339.488 620.063 344.627 618.812 349.577C612.949 378.457 600.21 405.498 581.675 428.409C574.953 436.72 565.385 445.135 554.943 442.848C545.201 440.7 539.666 429.561 540.242 419.591C540.818 409.622 545.847 400.56 550.509 391.655C561.578 370.703 572.334 347.726 586.93 329.62" fill="#FFBF5B"/>
<path d="M586.982 329.69C586.843 329.919 586.692 330.141 586.528 330.353L585.132 332.221C583.892 333.863 582.094 336.324 579.894 339.555C573.809 348.762 568.237 358.298 563.202 368.119L552.726 388.443C549.024 395.776 544.363 403.353 541.936 412.223C540.632 416.727 540.387 421.472 541.22 426.086C542.098 430.889 544.476 435.29 548.012 438.658C549.844 440.308 552.039 441.504 554.419 442.15C556.858 442.78 559.408 442.846 561.875 442.342C566.925 441.039 571.532 438.404 575.214 434.712C578.982 431.065 582.412 427.086 585.463 422.821C588.606 418.701 591.435 414.441 594.193 410.215C603.972 394.602 611.369 377.619 616.141 359.826C617.188 355.868 618.084 352.015 618.829 348.267C619.619 344.715 619.977 341.08 619.894 337.442C619.685 330.58 616.088 324.347 610.972 322.269C608.621 321.275 606.036 320.966 603.517 321.379C601.393 321.737 599.326 322.377 597.371 323.282C594.664 324.565 592.076 326.084 589.636 327.821L587.716 329.183C587.297 329.48 587.052 329.62 587.052 329.62L587.663 329.113C588.082 328.764 588.693 328.293 589.532 327.682C591.934 325.865 594.507 324.287 597.214 322.968C599.186 322.006 601.285 321.33 603.447 320.96C606.249 320.443 609.142 320.824 611.716 322.046C614.289 323.268 616.412 325.271 617.782 327.769C619.47 330.709 620.411 334.018 620.523 337.407C620.642 341.095 620.308 344.783 619.528 348.389C618.777 352.161 617.904 356.037 616.874 360.018C612.137 377.895 604.751 394.962 594.962 410.652C592.238 414.912 589.392 419.172 586.232 423.328C583.149 427.641 579.684 431.667 575.878 435.358C572.076 439.164 567.316 441.873 562.102 443.197C559.5 443.725 556.812 443.648 554.245 442.97C551.721 442.274 549.399 440.987 547.47 439.216C543.814 435.716 541.367 431.141 540.486 426.156C539.627 421.413 539.884 416.535 541.237 411.909C543.734 402.864 548.448 395.287 552.15 387.989C555.851 380.69 559.518 373.916 562.765 367.718C567.857 357.905 573.524 348.402 579.736 339.258C581.971 336.045 583.822 333.618 585.097 332.012L586.581 330.266C586.706 330.068 586.84 329.876 586.982 329.69V329.69Z" fill="#263238"/>
<g opacity="0.3">
<path opacity="0.3" d="M587.855 354.588V354.675C589.601 349.751 593.32 348.337 597.319 346.888C601.317 345.439 606.154 345.596 609.366 348.389C613.068 351.602 613.539 357.259 612.544 362.061C612.309 363.757 611.615 365.357 610.536 366.688C609.978 367.334 609.229 367.786 608.397 367.977C607.565 368.169 606.693 368.09 605.909 367.753C604.163 366.792 603.622 364.261 601.771 363.492C599.92 362.724 597.476 364.453 595.241 365.011C593.712 365.307 592.128 365.065 590.757 364.327C589.385 363.589 588.311 362.4 587.716 360.961C587.315 359.942 587.121 358.854 587.145 357.76C587.169 356.666 587.41 355.588 587.855 354.588V354.588Z" fill="black"/>
</g>
<g opacity="0.3">
<path opacity="0.3" d="M595.467 330.004C596.364 330.404 597.112 331.076 597.605 331.926C598.097 332.775 598.308 333.759 598.209 334.736C598.122 336.927 597.643 339.086 596.794 341.109C596.183 342.855 595.153 344.793 593.302 344.862C592.783 344.848 592.276 344.701 591.83 344.435C591.383 344.169 591.013 343.793 590.753 343.343C590.252 342.431 589.971 341.415 589.933 340.375C589.758 337.995 590.129 335.607 591.015 333.391C591.397 332.236 592.114 331.221 593.075 330.475C593.56 330.109 594.152 329.91 594.76 329.91C595.368 329.91 595.96 330.109 596.445 330.475" fill="black"/>
</g>
<g opacity="0.3">
<path opacity="0.3" d="M616.384 334.299C617.281 334.699 618.029 335.371 618.522 336.221C619.014 337.07 619.225 338.054 619.126 339.031C619.037 341.222 618.558 343.38 617.711 345.404C617.1 347.15 616.053 349.088 614.219 349.157C613.7 349.145 613.192 348.999 612.745 348.733C612.299 348.466 611.928 348.09 611.67 347.638C611.153 346.733 610.871 345.713 610.85 344.67C610.679 342.292 611.043 339.906 611.915 337.686C612.303 336.53 613.026 335.515 613.992 334.77C614.476 334.401 615.068 334.201 615.677 334.201C616.286 334.201 616.878 334.401 617.362 334.77" fill="black"/>
</g>
<g opacity="0.3">
<path opacity="0.3" d="M607.55 326.302C608.444 326.711 609.188 327.388 609.679 328.239C610.17 329.09 610.384 330.073 610.291 331.051C610.196 333.236 609.717 335.388 608.877 337.407C608.249 339.153 607.219 341.108 605.385 341.161C604.866 341.148 604.358 341.002 603.911 340.736C603.465 340.47 603.094 340.093 602.836 339.642C602.333 338.738 602.057 337.725 602.033 336.691C601.844 334.312 602.208 331.921 603.098 329.707C603.478 328.546 604.203 327.529 605.176 326.791C605.658 326.426 606.247 326.228 606.852 326.228C607.457 326.228 608.046 326.426 608.528 326.791" fill="black"/>
</g>
<g opacity="0.3">
<path opacity="0.3" d="M600.775 397.679C599.382 408.243 596.507 418.558 592.237 428.321C587.931 438.123 581.347 446.755 573.031 453.498C569.19 456.501 564.685 459.086 559.814 459.208C552.917 459.382 546.631 454.441 543.524 448.278C540.416 442.114 540.032 434.956 540.346 428.077C543.681 433.646 547.435 439.583 553.476 442.045C556.146 442.94 558.977 443.247 561.777 442.946C564.577 442.644 567.278 441.741 569.696 440.299C574.515 437.379 578.729 433.562 582.11 429.054C589.591 419.922 595.74 409.776 600.373 398.918" fill="black"/>
</g>
<path d="M209.724 331.086C201.134 328.45 190.518 326.267 184.198 332.728C182.541 334.671 181.363 336.974 180.757 339.454C180.15 341.934 180.133 344.522 180.706 347.01C181.886 351.98 183.982 356.688 186.886 360.891C202.493 385.887 223.884 406.763 249.253 421.756C258.455 427.169 270.363 431.708 279.337 425.894C287.735 420.481 288.992 408.102 284.977 398.971C280.961 389.839 273.104 383.047 265.579 376.36C247.874 360.646 229.751 342.872 209.707 330.964" fill="#FFBF5B"/>
<path d="M209.724 331.087C209.724 331.087 209.968 331.191 210.44 331.453L212.447 332.641C214.193 333.706 216.795 335.329 220.025 337.547C229.044 343.941 237.678 350.862 245.883 358.272L262.942 373.532C268.965 379.067 276.037 384.514 281.537 392.109C284.429 395.966 286.384 400.443 287.246 405.187C288.142 410.176 287.44 415.322 285.238 419.888C284.043 422.214 282.321 424.229 280.21 425.772C278.039 427.313 275.541 428.329 272.911 428.74C267.542 429.344 262.11 428.475 257.197 426.226C252.325 424.101 247.65 421.548 243.229 418.596C238.83 415.803 234.657 412.799 230.623 409.779C222.97 403.863 215.79 397.36 209.148 390.328C203.105 383.961 197.527 377.169 192.456 370.005C190.099 366.635 187.916 363.3 185.908 360.035C183.907 356.933 182.295 353.596 181.107 350.101C180.026 346.887 179.75 343.458 180.304 340.113C180.711 337.294 181.997 334.675 183.977 332.628C185.958 330.582 188.534 329.211 191.338 328.712C193.497 328.312 195.699 328.206 197.886 328.398C200.885 328.699 203.849 329.283 206.738 330.144C207.733 330.423 208.484 330.65 208.973 330.825L209.724 331.104L208.955 330.912L206.686 330.318C203.791 329.549 200.835 329.029 197.851 328.764C195.702 328.606 193.541 328.736 191.426 329.149C188.916 329.656 186.603 330.867 184.756 332.641C180.688 336.394 179.518 343.483 181.718 349.978C182.913 353.413 184.519 356.69 186.502 359.738C188.527 362.986 190.716 366.286 193.067 369.638C203.775 384.628 216.657 397.938 231.287 409.133C235.303 412.153 239.458 415.139 243.841 417.863C248.195 420.788 252.806 423.313 257.616 425.406C262.352 427.585 267.589 428.441 272.772 427.885C275.286 427.502 277.677 426.54 279.756 425.074C281.759 423.621 283.387 421.712 284.505 419.504C286.634 415.115 287.318 410.164 286.46 405.361C285.633 400.745 283.738 396.386 280.926 392.633C275.548 385.16 268.529 379.695 262.505 374.125L245.534 358.778C237.379 351.325 228.816 344.33 219.885 337.826C216.708 335.556 214.159 333.898 212.43 332.78L210.457 331.523L209.724 331.087Z" fill="#263238"/>
<g opacity="0.3">
<path opacity="0.3" d="M217.651 354.692C214.281 350.694 210.318 350.659 206.057 350.711C201.797 350.764 197.327 352.615 195.302 356.334C192.962 360.664 194.499 366.111 197.048 370.302C197.849 371.811 199.059 373.064 200.54 373.916C201.284 374.333 202.144 374.499 202.99 374.389C203.836 374.279 204.624 373.899 205.237 373.305C206.546 371.786 206.18 369.254 207.611 367.857C209.043 366.46 211.994 367.246 214.264 367.002C215.799 366.742 217.198 365.961 218.225 364.791C219.252 363.621 219.845 362.132 219.903 360.576C219.95 358.396 219.142 356.284 217.651 354.692V354.692Z" fill="black"/>
</g>
<g opacity="0.3">
<path opacity="0.3" d="M201.885 334.334C201.185 335.027 200.721 335.923 200.558 336.894C200.395 337.865 200.541 338.863 200.977 339.747C201.809 341.76 202.991 343.611 204.469 345.212C205.639 346.591 207.315 348.093 209.026 347.516C209.508 347.322 209.932 347.005 210.256 346.598C210.58 346.192 210.794 345.708 210.877 345.194C211.034 344.169 210.944 343.122 210.615 342.139C209.931 339.842 208.737 337.729 207.123 335.958C206.36 335.003 205.325 334.303 204.154 333.95C203.57 333.789 202.948 333.823 202.384 334.047C201.821 334.271 201.345 334.672 201.029 335.19" fill="black"/>
</g>
<g opacity="0.3">
<path opacity="0.3" d="M183.813 345.701C183.115 346.391 182.651 347.283 182.488 348.252C182.325 349.22 182.471 350.215 182.905 351.096C183.736 353.11 184.918 354.96 186.397 356.561C187.584 357.94 189.243 359.442 190.971 358.865C191.452 358.668 191.874 358.351 192.198 357.944C192.522 357.538 192.737 357.056 192.822 356.543C192.974 355.517 192.878 354.469 192.543 353.488C191.866 351.188 190.671 349.074 189.051 347.307C188.288 346.352 187.253 345.652 186.083 345.299C185.498 345.138 184.876 345.172 184.313 345.396C183.749 345.62 183.273 346.021 182.957 346.539" fill="black"/>
</g>
<g opacity="0.3">
<path opacity="0.3" d="M189.296 335.12C188.597 335.81 188.134 336.702 187.971 337.671C187.808 338.639 187.954 339.634 188.388 340.515C189.219 342.529 190.401 344.379 191.88 345.98C193.067 347.359 194.726 348.861 196.454 348.284C196.936 348.088 197.359 347.771 197.683 347.365C198.007 346.958 198.221 346.475 198.305 345.962C198.457 344.936 198.361 343.888 198.026 342.907C197.348 340.607 196.154 338.493 194.534 336.726C193.771 335.771 192.736 335.071 191.566 334.718C190.981 334.557 190.359 334.591 189.795 334.815C189.232 335.039 188.756 335.44 188.44 335.958" fill="black"/>
</g>
<g opacity="0.3">
<path opacity="0.3" d="M220.724 399.582C225.712 408.969 231.995 417.609 239.388 425.248C246.821 432.937 255.987 438.732 266.12 442.15C270.764 443.634 275.88 444.472 280.489 442.883C287.019 440.631 291.157 433.804 291.908 426.942C292.659 420.08 290.564 413.218 287.805 406.898C286.635 413.288 285.203 420.167 280.384 424.532C278.216 426.308 275.688 427.593 272.976 428.298C270.263 429.004 267.429 429.113 264.67 428.618C259.133 427.578 253.846 425.485 249.096 422.455C238.898 416.514 229.588 409.167 221.439 400.63" fill="black"/>
</g>
<g opacity="0.3">
<path opacity="0.3" d="M214.229 390.101C213.722 390.8 213.216 391.516 212.727 392.231C214.883 388.753 217.722 385.748 221.073 383.398C224.423 381.048 228.215 379.402 232.219 378.558C236.223 377.715 240.357 377.692 244.371 378.491C248.384 379.29 252.194 380.895 255.57 383.207C258.946 385.52 261.818 388.494 264.013 391.948C266.208 395.402 267.679 399.265 268.339 403.304C268.998 407.342 268.832 411.473 267.851 415.446C266.869 419.419 265.092 423.151 262.628 426.418C242.999 418.393 225.229 406.417 210.422 391.236" fill="white"/>
</g>
<path d="M707.159 372.868C707.173 373.26 707.144 373.652 707.072 374.038C706.95 374.911 706.793 376.011 706.618 377.39C706.216 380.306 705.535 384.497 704.575 389.612C702.2 403.121 698.624 416.391 693.89 429.264C691.169 436.327 687.882 443.159 684.06 449.692C683.169 451.194 682.209 452.591 681.336 453.987L680.009 456.03L678.595 457.933L675.906 461.513C674.981 462.613 674.055 463.643 673.182 464.62C672.309 465.598 671.523 466.593 670.65 467.397L668.241 469.719L666.128 471.727L664.208 473.246L661.536 475.341C661.241 475.604 660.912 475.827 660.559 476.004C660.823 475.71 661.109 475.435 661.414 475.184L663.981 472.984L665.831 471.412L667.874 469.352L670.231 467.013C671.087 466.192 671.838 465.179 672.693 464.201L675.347 461.076L677.984 457.479L679.363 455.594C679.799 454.93 680.219 454.249 680.655 453.551C681.528 452.154 682.401 450.757 683.344 449.273C687.062 442.753 690.278 435.959 692.964 428.95C697.695 416.142 701.368 402.968 703.947 389.56C704.977 384.427 705.693 380.254 706.269 377.338C706.513 375.976 706.723 374.876 706.88 374.021C706.944 373.63 707.037 373.245 707.159 372.868V372.868Z" fill="#263238"/>
<path d="M305.475 266.956C305.703 266.641 305.974 266.359 306.278 266.118L308.705 263.848C309.77 262.853 311.079 261.665 312.651 260.356C314.222 259.046 315.968 257.457 317.993 255.851C321.992 252.551 326.898 248.867 332.503 244.851C338.107 240.835 344.445 236.837 351.29 232.856C358.134 228.875 364.856 225.453 371.037 222.52C377.218 219.587 382.945 217.282 387.799 215.414C390.208 214.453 392.425 213.668 394.363 213.004C396.302 212.341 397.995 211.765 399.375 211.346L402.57 210.368C402.931 210.234 403.305 210.14 403.687 210.088C403.345 210.268 402.989 210.42 402.622 210.542L399.479 211.677C398.117 212.149 396.459 212.742 394.538 213.423C392.617 214.104 390.418 214.942 388.026 215.937C383.224 217.841 377.55 220.303 371.404 223.218C365.258 226.134 358.658 229.696 351.674 233.607C344.69 237.518 338.544 241.639 332.904 245.515C327.265 249.391 322.428 253.092 318.325 256.322C316.282 257.894 314.501 259.413 312.913 260.722C311.324 262.032 309.962 263.149 308.879 264.11L306.33 266.257C306.073 266.523 305.786 266.757 305.475 266.956Z" fill="#263238"/>
<path d="M256.324 237.797C256.324 237.797 256.429 237.71 256.639 237.553L257.616 236.89L261.457 234.445C263.116 233.38 265.159 232.105 267.603 230.726C270.048 229.347 272.841 227.671 275.914 226.064L280.803 223.463C282.549 222.572 284.295 221.717 286.198 220.809C289.9 218.941 293.985 217.195 298.246 215.292C306.853 211.66 316.456 208.028 326.758 204.816C337.059 201.603 347.064 199.281 356.23 197.465C360.822 196.644 365.187 195.806 369.308 195.265C371.351 194.986 373.341 194.654 375.244 194.444L380.762 193.833C384.254 193.414 387.449 193.24 390.242 193.03C393.036 192.821 395.48 192.698 397.436 192.646L401.976 192.524H403.145C403.284 192.497 403.426 192.497 403.564 192.524H403.163L401.976 192.628L397.453 192.925C395.48 193.03 393.071 193.17 390.295 193.449C387.519 193.728 384.324 193.921 380.832 194.392L375.332 195.055C373.428 195.282 371.456 195.632 369.413 195.928C365.31 196.487 360.962 197.36 356.388 198.198C347.273 200.066 337.304 202.476 327.02 205.601C316.736 208.727 307.168 212.376 298.577 215.955C294.317 217.823 290.232 219.552 286.53 221.385C284.662 222.293 282.829 223.131 281.117 223.987L276.211 226.536C273.068 228.107 270.31 229.713 267.865 231.058C265.421 232.402 263.326 233.624 261.632 234.637L257.721 236.942L256.691 237.518C256.464 237.763 256.324 237.815 256.324 237.797Z" fill="#263238"/>
<path d="M464.395 180.25C464.5 180.511 459.995 182.415 455.019 185.749C450.043 189.084 446.534 192.489 446.289 192.279C451.058 186.654 457.314 182.485 464.343 180.25H464.395Z" fill="#263238"/>
<path d="M493.938 189.73C493.938 189.905 491.354 188.735 487.076 187.652C481.503 186.197 475.728 185.666 469.983 186.081C464.235 186.321 458.609 187.817 453.5 190.463C451.467 191.687 449.717 193.33 448.367 195.282C448.545 194.647 448.848 194.054 449.258 193.536C450.318 192.087 451.645 190.855 453.169 189.905C456.975 187.408 463.103 185.679 469.913 185.156C475.756 184.732 481.628 185.359 487.251 187.006C488.945 187.48 490.608 188.063 492.227 188.752C492.831 189.015 493.405 189.343 493.938 189.73Z" fill="#263238"/>
<path d="M408.052 186.483C409.598 183.368 411.777 180.61 414.45 178.386C417.123 176.161 420.23 174.518 423.574 173.563C434.713 170.629 446.272 182.293 446.272 182.293C446.272 182.293 432.81 178.329 433.002 185.016C433.194 191.703 437.158 191.546 432.688 195.946C428.218 200.346 420.553 195.719 418.72 190.534L415.123 185.47L408.052 186.483Z" fill="#263238"/>
<path d="M454.181 193.03C454.181 193.03 454.181 193.257 454.268 193.659C454.327 194.268 454.327 194.882 454.268 195.492C453.949 197.729 453.045 199.843 451.649 201.621C450.63 202.97 449.348 204.099 447.881 204.939C446.413 205.779 444.791 206.313 443.111 206.509C441.038 206.667 438.956 206.334 437.036 205.536C435.115 204.738 433.41 203.498 432.059 201.917C430.721 200.381 429.78 198.541 429.318 196.557L430.174 196.313C430.699 197.956 430.841 199.698 430.59 201.404C430.339 203.111 429.701 204.738 428.724 206.16C427.404 208.01 425.535 209.398 423.383 210.128C421.23 210.858 418.903 210.893 416.729 210.228C416.271 210.089 415.827 209.908 415.402 209.687C415.123 209.53 414.983 209.443 414.983 209.408C414.983 209.373 415.629 209.652 416.817 209.931C418.495 210.315 420.237 210.315 421.915 209.931C424.43 209.365 426.635 207.86 428.078 205.724C428.96 204.393 429.53 202.882 429.748 201.301C429.965 199.72 429.825 198.111 429.336 196.592L430.191 196.365C430.636 198.2 431.517 199.901 432.758 201.324C434.016 202.799 435.6 203.961 437.385 204.719C439.17 205.476 441.106 205.809 443.042 205.689C444.623 205.517 446.155 205.033 447.548 204.266C448.941 203.499 450.169 202.463 451.16 201.219C452.547 199.546 453.495 197.553 453.919 195.422C454.146 193.956 454.094 193.03 454.181 193.03Z" fill="#263238"/>
<path d="M432.601 175.204C431.445 175.377 430.275 175.43 429.109 175.361C426.284 175.331 423.469 175.695 420.745 176.443C418.055 177.229 415.613 178.696 413.657 180.704C412.207 182.292 411.684 183.567 411.544 183.515C411.774 182.304 412.343 181.184 413.185 180.285C415.09 178.016 417.633 176.374 420.483 175.57C423.294 174.791 426.217 174.502 429.126 174.715C430.303 174.696 431.475 174.861 432.601 175.204V175.204Z" fill="white"/>
<path d="M311.638 238.164C311.85 237.938 312.084 237.734 312.336 237.553L314.449 235.912C316.195 234.498 319.041 232.56 322.515 230.29C325.99 228.02 330.215 225.471 335.052 222.852C339.888 220.233 345.335 217.614 351.202 215.222C357.069 212.83 362.778 210.874 368.033 209.285C373.289 207.697 378.108 206.544 382.176 205.793C386.244 205.043 389.562 204.397 391.866 204.047L394.52 203.716C394.828 203.681 395.138 203.681 395.446 203.716C395.156 203.84 394.851 203.923 394.538 203.96L391.919 204.449C389.631 204.833 386.349 205.497 382.316 206.404C378.282 207.312 373.586 208.535 368.348 210.123C363.11 211.712 357.453 213.72 351.604 216.095C345.755 218.469 340.359 221.106 335.506 223.637C330.652 226.169 326.426 228.666 322.917 230.866C319.407 233.066 316.631 234.917 314.728 236.244L312.511 237.728C311.935 238.042 311.655 238.199 311.638 238.164Z" fill="#263238"/>
<path d="M399.126 161.249C404.169 140.097 391.11 118.862 369.959 113.819C348.807 108.776 327.572 121.835 322.529 142.987C317.486 164.139 330.544 185.374 351.696 190.417C372.848 195.46 394.083 182.401 399.126 161.249Z" fill="#F5F5F5"/>
<path d="M400.23 152.174C400.23 171.17 387.397 186.587 376.537 186.587C365.677 186.587 356.912 171.17 356.912 152.174C356.912 133.177 365.642 117.743 376.607 117.743C387.572 117.743 400.23 133.16 400.23 152.174Z" fill="#263238"/>
<path d="M385.267 139.445C388.989 139.445 392.006 136.428 392.006 132.706C392.006 128.984 388.989 125.966 385.267 125.966C381.545 125.966 378.527 128.984 378.527 132.706C378.527 136.428 381.545 139.445 385.267 139.445Z" fill="white"/>
<path d="M367.841 177.176C367.449 176.672 367.12 176.121 366.864 175.535C366.04 173.99 365.334 172.385 364.751 170.734C363.845 168.292 363.139 165.781 362.638 163.226C362.045 160.093 361.718 156.916 361.66 153.728C361.649 150.533 361.912 147.344 362.446 144.194C362.894 141.632 363.548 139.109 364.402 136.652C364.948 134.991 365.619 133.374 366.41 131.815C366.647 131.195 366.964 130.608 367.352 130.069C367.51 130.069 366.305 132.601 365.013 136.791C364.263 139.24 363.679 141.737 363.267 144.264C362.791 147.367 362.557 150.502 362.568 153.64C362.625 156.778 362.923 159.907 363.459 162.999C363.918 165.526 364.554 168.017 365.362 170.454C366.741 174.68 367.998 177.107 367.841 177.176Z" fill="white"/>
<path d="M350.852 102.029C350.748 103.303 349.281 104.281 347.36 105.189C345.44 106.097 342.838 106.935 340.272 108.105C337.705 109.275 335.453 110.287 333.532 111.16C331.612 112.033 330.04 112.557 328.905 111.876C327.77 111.195 327.631 109.292 328.905 106.76C330.627 103.566 333.432 101.09 336.815 99.7764C340.054 98.3487 343.671 98.0177 347.116 98.8336C349.578 99.497 350.957 100.807 350.852 102.029Z" fill="#263238"/>
<path d="M162.949 437.47L171.801 423.607C213.949 469.911 353.21 524.98 477.892 400.507C531.442 347.045 527.112 256.707 527.112 256.707L516.461 223.253H527.112C527.112 223.253 557.981 280.19 525.663 354.745C525.663 354.745 492.489 443.11 390.924 475.219C230.711 525.818 162.949 437.47 162.949 437.47Z" fill="#FFBF5B"/>
<g opacity="0.7">
<path opacity="0.7" d="M162.949 437.47L171.801 423.607C213.949 469.911 353.21 524.98 477.892 400.507C531.442 347.045 527.112 256.707 527.112 256.707L516.461 223.253H527.112C527.112 223.253 557.981 280.19 525.663 354.745C525.663 354.745 492.489 443.11 390.924 475.219C230.711 525.818 162.949 437.47 162.949 437.47Z" fill="white"/>
</g>
<path d="M160.561 454.411C190.119 424.852 190.119 376.929 160.561 347.37C131.002 317.812 83.0787 317.812 53.5203 347.37C23.9618 376.929 23.9618 424.852 53.5203 454.411C83.0787 483.969 131.002 483.969 160.561 454.411Z" fill="#FFBF5B"/>
<g opacity="0.7">
<path opacity="0.7" d="M160.561 454.411C190.119 424.852 190.119 376.929 160.561 347.37C131.002 317.812 83.0787 317.812 53.5203 347.37C23.9618 376.929 23.9618 424.852 53.5203 454.411C83.0787 483.969 131.002 483.969 160.561 454.411Z" fill="white"/>
</g>
<path d="M125.183 327.315C125.142 327.8 125.054 328.279 124.921 328.747C124.711 329.759 124.397 331.121 124.03 332.85C123.821 333.74 123.594 334.735 123.349 335.8C123.105 336.866 122.721 338.018 122.372 339.292C121.621 341.772 120.905 344.635 119.753 347.691L118.007 352.51C117.413 354.256 116.662 355.88 115.946 357.66C114.584 361.24 112.769 364.924 110.935 368.817C106.735 377.177 101.938 385.223 96.5832 392.895C91.1181 400.492 85.1139 407.687 78.6169 414.423C75.5265 417.443 72.663 420.359 69.7297 422.839C68.298 424.096 66.9361 425.37 65.5568 426.488L61.5585 429.683C59.0617 431.778 56.5998 433.402 54.5745 434.921C53.5094 435.672 52.5491 436.388 51.6237 436.999L49.0571 438.622L45.5651 440.822C45.1669 441.106 44.7397 441.346 44.2905 441.538C44.6616 441.223 45.0523 440.931 45.4603 440.665L48.9523 438.326L51.4666 436.58C52.3745 435.934 53.3173 435.2 54.3649 434.449C56.4252 432.896 58.8522 431.219 61.3489 429.107L65.2949 425.894C66.6742 424.759 68.0012 423.485 69.4155 422.21C72.3138 419.713 75.1598 416.78 78.1455 413.759C84.546 407.043 90.4734 399.89 95.8848 392.353C101.218 384.723 106.014 376.73 110.237 368.433C112.088 364.557 113.904 360.908 115.3 357.364C116.034 355.618 116.802 353.872 117.413 352.248C118.024 350.624 118.6 348.983 119.159 347.464C120.346 344.426 121.115 341.58 121.9 339.135C122.267 337.896 122.651 336.743 122.948 335.643C123.245 334.543 123.472 333.601 123.699 332.71C124.153 330.964 124.502 329.655 124.764 328.659C124.865 328.2 125.005 327.751 125.183 327.315V327.315Z" fill="#FFBF5B"/>
<path d="M143.079 335.032C143.025 335.546 142.926 336.055 142.782 336.551C142.538 337.616 142.206 339.048 141.769 340.864C141.542 341.807 141.281 342.854 141.001 343.989C140.722 345.124 140.32 346.329 139.919 347.638C139.098 350.24 138.312 353.278 137.038 356.473L135.17 361.554C134.524 363.3 133.668 365.046 132.882 366.967C131.363 370.72 129.39 374.579 127.347 378.647C122.705 387.391 117.393 395.762 111.459 403.685C105.431 411.525 98.818 418.896 91.6767 425.737C88.3243 428.827 85.1466 431.796 81.9689 434.31C80.3975 435.584 78.9309 436.894 77.4118 437.994L73.0643 441.224C70.358 443.337 67.6866 444.978 65.4168 446.462C63.147 447.946 61.1391 449.221 59.4804 450.181L55.6392 452.416C55.2031 452.692 54.748 452.937 54.2773 453.149C54.679 452.82 55.1051 452.523 55.5519 452.259L59.2884 449.884C60.9296 448.871 62.92 447.632 65.1375 446.043C67.3549 444.454 70.0088 442.795 72.6976 440.665L76.9753 437.47C78.4769 436.353 79.9261 435.026 81.48 433.751C84.6403 431.219 87.7656 428.251 91.1005 425.161C98.1632 418.297 104.722 410.933 110.726 403.126C116.626 395.248 121.926 386.937 126.579 378.263C128.639 374.212 130.63 370.389 132.184 366.652C132.97 364.802 133.93 363.056 134.489 361.292C135.047 359.529 135.798 357.8 136.409 356.264C137.719 353.068 138.539 350.083 139.412 347.534C139.831 346.224 140.268 345.019 140.582 343.902C140.896 342.784 141.158 341.754 141.403 340.812C141.909 339.066 142.293 337.599 142.59 336.551C142.722 336.036 142.886 335.528 143.079 335.032V335.032Z" fill="#FFBF5B"/>
<path d="M159.613 348.634C159.526 349.144 159.397 349.646 159.229 350.135C158.915 351.2 158.479 352.615 157.937 354.431C157.658 355.356 157.326 356.386 156.994 357.503C156.663 358.621 156.156 359.826 155.685 361.135C154.707 363.702 153.712 366.687 152.193 369.865L150.045 374.876C149.295 376.622 148.387 378.368 147.496 380.219C145.75 383.92 143.62 387.727 141.42 391.76C136.453 400.38 130.905 408.651 124.816 416.518C118.579 424.303 111.812 431.648 104.562 438.5C101.07 441.591 97.9622 444.559 94.7321 447.091C93.1433 448.365 91.6592 449.657 90.1227 450.792L85.7403 454.04C82.9816 456.152 80.3102 457.811 78.0229 459.278C76.8706 460.029 75.8055 460.762 74.7928 461.373L72.0167 463.014L68.1406 465.249C67.6975 465.524 67.2367 465.769 66.7612 465.982C67.1674 465.652 67.5995 465.354 68.0533 465.092L71.8246 462.717L74.5659 460.971C75.5611 460.343 76.6087 459.592 77.7436 458.824C79.9959 457.235 82.6324 455.559 85.3561 453.411C86.7529 452.364 88.2021 451.281 89.7037 450.129C91.2052 448.976 92.6719 447.684 94.2607 446.392C97.4384 443.861 100.616 440.875 103.986 437.802C111.167 430.938 117.886 423.606 124.1 415.855C130.213 408.033 135.801 399.815 140.827 391.254C143.044 387.238 145.226 383.484 146.972 379.8C147.863 378.054 148.718 376.308 149.557 374.562C150.395 372.816 151.041 371.157 151.739 369.586C153.206 366.443 154.236 363.475 155.231 360.856C155.737 359.581 156.209 358.394 156.61 357.277C157.012 356.159 157.326 355.146 157.641 354.221C158.252 352.475 158.74 351.043 159.09 349.996C159.232 349.53 159.407 349.075 159.613 348.634V348.634Z" fill="#FFBF5B"/>
<path d="M179.466 420.447C178.855 420.294 178.268 420.059 177.72 419.748C176.672 419.259 175.153 418.491 173.302 417.531C169.601 415.61 164.572 412.817 159.073 409.534C153.573 406.252 148.789 403.091 145.349 400.717C143.603 399.53 142.259 398.552 141.316 397.836C140.805 397.509 140.336 397.123 139.919 396.684C140.49 396.903 141.03 397.196 141.525 397.557L145.698 400.176C149.19 402.41 154.096 405.414 159.544 408.748C164.992 412.083 170.02 414.912 173.617 416.972L177.894 419.434C178.465 419.693 178.994 420.034 179.466 420.447V420.447Z" fill="#FFBF5B"/>
<path d="M182.661 404.069C180.901 403.079 179.209 401.971 177.598 400.752C174.507 398.639 170.212 395.776 165.376 392.808C160.539 389.839 155.982 387.36 152.7 385.544C150.883 384.645 149.133 383.618 147.462 382.471C148 382.594 148.517 382.794 148.998 383.065C149.959 383.484 151.321 384.13 152.997 384.968C156.349 386.714 160.941 389.071 165.847 392.039C170.754 395.007 174.996 397.976 178.069 400.228C179.571 401.363 180.776 402.288 181.561 402.969C182.347 403.65 182.714 404.034 182.661 404.069Z" fill="#FFBF5B"/>
<path d="M136.025 469.247C135.763 469.247 135.17 455.384 134.698 438.256C134.227 421.128 134.035 407.229 134.279 407.229C134.524 407.229 135.117 421.093 135.606 438.221C136.095 455.349 136.27 469.247 136.025 469.247Z" fill="#FFBF5B"/>
<path d="M98.7132 477.925C98.2531 472.158 98.1016 466.371 98.2593 460.587C98.1012 454.804 98.2527 449.017 98.7132 443.25C99.1632 449.017 99.3147 454.804 99.1672 460.587C99.3142 466.371 99.1627 472.158 98.7132 477.925V477.925Z" fill="#FFBF5B"/>
<path d="M117.046 475.882C116.802 475.882 116.662 464.533 116.767 450.548C116.871 436.562 117.133 425.196 117.395 425.196C117.657 425.196 117.762 436.545 117.675 450.548C117.587 464.551 117.29 475.882 117.046 475.882Z" fill="#FFBF5B"/>
<path d="M78.3548 414.406C78.2152 414.615 68.3328 408.242 56.3029 400.158C44.2729 392.074 34.6001 385.352 34.7398 385.09C34.8795 384.828 44.7618 391.254 56.8092 399.338C68.8566 407.422 78.4945 414.196 78.3548 414.406Z" fill="#FFBF5B"/>
<path d="M65.1726 425.248C64.6488 425.168 64.1415 425.003 63.6711 424.759C62.7457 424.393 61.4013 423.799 59.7775 423.013C55.5815 420.963 51.5014 418.684 47.5555 416.186C42.9111 413.253 38.8255 410.337 35.997 408.172C34.3924 407.077 32.8905 405.838 31.5098 404.471C33.2045 405.417 34.8321 406.479 36.3811 407.648C39.3318 409.691 43.3651 412.502 48.0444 415.418C52.7237 418.334 56.9839 420.743 60.1442 422.402C61.8747 423.251 63.5538 424.202 65.1726 425.248V425.248Z" fill="#FFBF5B"/>
<path d="M110.604 368.678C109.749 369.09 108.861 369.429 107.95 369.69C106.897 370.079 105.825 370.411 104.737 370.686C103.48 371.035 102.048 371.436 100.442 371.768C96.6745 372.581 92.8612 373.164 89.023 373.514C84.3212 373.932 79.5991 374.078 74.8804 373.951C70.1627 373.781 65.4585 373.344 60.7902 372.641C56.9819 372.054 53.2102 371.249 49.4936 370.232C47.9047 369.83 46.4905 369.376 45.2508 368.975C44.0112 368.573 42.9286 368.206 42.0906 367.857C41.1811 367.562 40.299 367.188 39.4541 366.74C40.3877 366.926 41.3045 367.189 42.1953 367.525C43.0683 367.822 44.1334 368.154 45.3905 368.486C46.6476 368.817 48.0619 369.254 49.6507 369.621C52.8285 370.441 56.6347 371.14 60.9124 371.821C65.5447 372.464 70.2067 372.872 74.8804 373.043C79.5396 373.163 84.2019 373.04 88.8484 372.676C92.6743 372.365 96.4803 371.846 100.25 371.122C101.874 370.843 103.305 370.476 104.562 370.179C105.82 369.883 106.92 369.603 107.793 369.341C108.705 369.028 109.647 368.806 110.604 368.678V368.678Z" fill="#FFBF5B"/>
<path d="M118.967 349.088C118.145 349.552 117.286 349.949 116.4 350.275C115.562 350.659 114.515 351.043 113.292 351.48C112.07 351.916 110.673 352.423 109.119 352.877C105.454 354.001 101.729 354.922 97.9625 355.635C93.3431 356.48 88.6796 357.063 83.9945 357.381C79.3077 357.66 74.6085 357.66 69.9217 357.381C66.0979 357.135 62.2947 356.634 58.5378 355.88C56.914 355.6 55.4823 355.216 54.2252 354.885C53.1498 354.621 52.0891 354.3 51.0475 353.924C50.1372 353.658 49.2497 353.32 48.3936 352.912C49.333 353.049 50.2569 353.277 51.1522 353.593C52.0078 353.854 53.0903 354.116 54.3474 354.378C55.6045 354.64 57.0363 355.007 58.6426 355.251C62.3919 355.899 66.1753 356.33 69.9741 356.543C74.6289 356.754 79.2917 356.713 83.9421 356.421C88.5895 356.071 93.2164 355.489 97.8054 354.675C102.013 353.854 105.802 353.034 108.91 352.126C110.481 351.707 111.878 351.253 113.118 350.851C114.357 350.45 115.405 350.135 116.261 349.804C117.138 349.482 118.044 349.242 118.967 349.088Z" fill="#FFBF5B"/>
<path d="M124.134 331.837C123.406 332.245 122.632 332.567 121.83 332.798C120.328 333.374 118.111 334.125 115.37 334.963C108.192 337.173 100.855 338.825 93.4223 339.904C85.9842 340.991 78.4646 341.417 70.9513 341.179C68.0704 341.056 65.7133 340.882 64.1419 340.69C63.305 340.642 62.4746 340.514 61.6626 340.306C62.499 340.23 63.3405 340.23 64.1768 340.306C65.7657 340.393 68.0879 340.463 70.9688 340.498C78.4276 340.561 85.8806 340.065 93.2652 339.013C100.659 337.917 107.978 336.36 115.178 334.352C117.936 333.583 120.171 332.937 121.708 332.466C122.497 332.189 123.309 331.979 124.134 331.837V331.837Z" fill="#FFBF5B"/>
<path d="M154.725 406.304C151.727 410.252 148.491 414.013 145.034 417.566C141.8 421.326 138.343 424.889 134.681 428.234C137.681 424.283 140.917 420.516 144.371 416.955C147.602 413.197 151.06 409.64 154.725 406.304V406.304Z" fill="#FFBF5B"/>
<path d="M169.251 414.895C169.063 415.419 168.798 415.914 168.466 416.361C167.907 417.287 167.034 418.561 165.899 420.115C159.94 428.184 152.327 434.887 143.568 439.775C141.822 440.7 140.512 441.399 139.534 441.835C139.047 442.105 138.524 442.305 137.98 442.429C137.98 442.307 140.006 441.207 143.218 439.216C147.432 436.639 151.427 433.719 155.161 430.486C158.853 427.197 162.264 423.606 165.358 419.748C167.785 416.745 169.129 414.772 169.251 414.895Z" fill="#FFBF5B"/>
<path d="M173.669 422.646C173.346 426.079 172.307 429.407 170.62 432.414C168.933 435.421 166.635 438.042 163.874 440.107C166.067 437.543 168.063 434.818 169.845 431.953C171.346 428.949 172.625 425.838 173.669 422.646V422.646Z" fill="#FFBF5B"/>
<path d="M188.318 438.692C187.79 441.504 186.504 444.118 184.599 446.253C182.925 448.575 180.641 450.388 177.999 451.49C180.087 449.679 182.058 447.737 183.901 445.676C185.507 443.436 186.982 441.104 188.318 438.692V438.692Z" fill="#FFBF5B"/>
<path d="M211.993 453.184C212.076 456.2 211.288 459.177 209.724 461.757C208.414 464.476 206.33 466.747 203.735 468.287C205.687 466.121 207.44 463.784 208.973 461.303C210.216 458.691 211.227 455.974 211.993 453.184Z" fill="#FFBF5B"/>
<path d="M239.109 466.209C239.756 469.044 239.456 472.013 238.254 474.66C237.328 477.408 235.54 479.785 233.155 481.435C236.797 477.174 238.895 471.81 239.109 466.209V466.209Z" fill="#FFBF5B"/>
<path d="M264.146 488.541C263.884 488.453 264.932 485.049 265.176 480.788C265.421 476.528 264.81 473.019 265.072 472.966C266.742 478.088 266.411 483.653 264.146 488.541V488.541Z" fill="#FFBF5B"/>
<path d="M284.662 490.042C284.418 489.938 285.675 486.9 286.007 482.936C286.338 478.973 285.657 475.777 286.007 475.725C286.87 478.056 287.204 480.551 286.984 483.027C286.763 485.504 285.994 487.9 284.732 490.042H284.662Z" fill="#FFBF5B"/>
<path d="M313.366 489.85C313.104 489.85 313.523 486.864 313.052 483.285C312.58 479.706 311.463 476.965 311.707 476.86C313.033 478.715 313.813 480.905 313.96 483.18C314.397 485.415 314.191 487.728 313.366 489.85V489.85Z" fill="#FFBF5B"/>
<path d="M333.201 488.104C332.921 488.104 332.921 485.293 331.979 482.028C331.036 478.763 329.622 476.336 329.849 476.196C331.246 477.814 332.271 479.719 332.85 481.777C333.43 483.835 333.549 485.995 333.201 488.104Z" fill="#FFBF5B"/>
<path d="M356.475 482.988C356.196 482.988 356.335 480.247 355.305 477.122C354.275 473.996 352.616 471.884 352.843 471.674C354.391 473.074 355.541 474.857 356.179 476.844C356.817 478.83 356.919 480.95 356.475 482.988V482.988Z" fill="#FFBF5B"/>
<path d="M385.127 477.157C384.847 477.157 384.812 474.101 383.538 470.627C382.263 467.152 380.342 464.778 380.552 464.603C382.278 466.166 383.596 468.126 384.393 470.314C385.191 472.501 385.442 474.85 385.127 477.157V477.157Z" fill="#FFBF5B"/>
<path d="M409.292 467.728C409.03 467.728 408.07 464.638 406.01 461.181C403.949 457.724 401.662 455.349 401.854 455.157C405.85 458.242 408.512 462.741 409.292 467.728V467.728Z" fill="#FFBF5B"/>
<path d="M436.303 453.568C436.041 453.568 435.22 450.286 433.02 446.759C430.82 443.232 428.236 440.997 428.411 440.788C430.589 442.202 432.427 444.082 433.792 446.292C435.156 448.502 436.014 450.987 436.303 453.568V453.568Z" fill="#FFBF5B"/>
<path d="M462.685 434.659C461.535 432.623 460.245 430.668 458.826 428.81C457.193 427.138 455.443 425.586 453.588 424.166C455.961 424.83 458.052 426.253 459.542 428.216C461.253 429.971 462.354 432.23 462.685 434.659V434.659Z" fill="#FFBF5B"/>
<path d="M485.277 415.366C485.05 415.523 482.955 412.712 479.778 409.849C476.6 406.985 473.632 405.117 473.771 404.873C476.266 405.8 478.525 407.267 480.389 409.168C482.45 410.854 484.118 412.969 485.277 415.366V415.366Z" fill="#FFBF5B"/>
<path d="M505.514 390.206C505.287 390.346 503.541 387.517 500.468 384.968C497.395 382.419 494.339 381.127 494.444 380.865C496.876 381.489 499.135 382.655 501.052 384.275C502.969 385.896 504.494 387.929 505.514 390.223V390.206Z" fill="#FFBF5B"/>
<path d="M523.55 360.262C521.511 358.632 519.383 357.117 517.177 355.722C514.824 354.605 512.411 353.62 509.948 352.772C512.656 352.756 515.314 353.506 517.613 354.937C520.062 356.106 522.123 357.954 523.55 360.262V360.262Z" fill="#FFBF5B"/>
<path d="M534.515 327.909C529.8 325.175 524.38 323.899 518.94 324.242C521.633 323.462 524.48 323.389 527.209 324.032C529.937 324.674 532.454 326.009 534.515 327.909V327.909Z" fill="#FFBF5B"/>
<path d="M539.386 293.163C539.299 293.425 536.453 292.43 532.803 292.046C529.154 291.662 526.169 292.046 526.134 291.697C530.574 290.444 535.327 290.97 539.386 293.163V293.163Z" fill="#FFBF5B"/>
<path d="M537.587 258.366C535.943 258.574 534.285 258.645 532.629 258.575C530.991 258.787 529.338 258.868 527.688 258.82C530.816 257.44 534.346 257.279 537.587 258.366V258.366Z" fill="#FFBF5B"/>
<path d="M530.464 234.463C528.742 234.105 526.985 233.946 525.226 233.991C523.521 234.324 521.858 234.845 520.268 235.545C520.268 235.458 520.582 234.952 521.42 234.393C522.534 233.673 523.802 233.225 525.121 233.084C526.44 232.935 527.774 233.103 529.015 233.572C530.028 233.939 530.517 234.358 530.464 234.463Z" fill="#FFBF5B"/>
<g opacity="0.3">
<path opacity="0.3" d="M412.051 351.916C420.519 367.997 440.266 376.256 458.32 374.056C476.373 371.856 492.454 360.629 503.716 346.312C512.009 335.731 518.155 322.025 514.733 309.035C505.776 327.653 490.109 342.195 470.875 349.741C451.642 357.286 430.266 357.278 411.038 349.716" fill="black"/>
</g>
<path d="M517.719 213.546C513.662 207.293 512.175 199.716 513.567 192.395C514.959 185.073 519.123 178.57 525.192 174.243C530.01 170.751 535.825 168.883 540.382 165.112C543.168 162.667 545.438 159.691 547.057 156.356C548.677 153.022 549.613 149.397 549.81 145.696C550.147 138.27 548.501 130.888 545.044 124.308L549.897 121.916L550.316 122.439C553.539 126.671 555.784 131.565 556.888 136.769C557.993 141.972 557.93 147.356 556.704 152.532C555.479 157.708 553.121 162.549 549.8 166.704C546.48 170.86 542.279 174.228 537.501 176.565C533.866 178.234 530.448 180.338 527.322 182.833C521.263 188.071 523.742 194.025 523.742 194.025" fill="#FFBF5B"/>
<g opacity="0.7">
<path opacity="0.7" d="M517.719 213.546C513.662 207.293 512.175 199.716 513.567 192.395C514.959 185.073 519.123 178.57 525.192 174.243C530.01 170.751 535.825 168.883 540.382 165.112C543.168 162.667 545.438 159.691 547.057 156.356C548.677 153.022 549.613 149.397 549.81 145.696C550.147 138.27 548.501 130.888 545.044 124.308L549.897 121.916L550.316 122.439C553.539 126.671 555.784 131.565 556.888 136.769C557.993 141.972 557.93 147.356 556.704 152.532C555.479 157.708 553.121 162.549 549.8 166.704C546.48 170.86 542.279 174.228 537.501 176.565C533.866 178.234 530.448 180.338 527.322 182.833C521.263 188.071 523.742 194.025 523.742 194.025" fill="white"/>
</g>
<path d="M524.527 194.34C522.55 193.948 520.536 193.772 518.521 193.816C516.523 194.138 514.567 194.683 512.689 195.44C514.276 193.997 516.289 193.109 518.424 192.911C520.56 192.712 522.702 193.214 524.527 194.34V194.34Z" fill="#FFBF5B"/>
<path d="M529.103 181.018C528.858 181.105 528.09 179.586 526.658 178.154C525.226 176.723 523.725 175.919 523.812 175.675C523.9 175.43 525.715 175.902 527.304 177.508C528.893 179.115 529.33 180.948 529.103 181.018Z" fill="#FFBF5B"/>
<path d="M546.23 170.891C545.986 170.979 545.357 169.285 543.978 167.626C542.598 165.968 541.114 164.99 541.237 164.763C541.359 164.536 543.192 165.217 544.729 167.067C546.265 168.918 546.475 170.856 546.23 170.891Z" fill="#FFBF5B"/>
<path d="M557.702 149.171C556.366 149.078 555.041 148.873 553.739 148.56C552.402 148.53 551.07 148.384 549.758 148.123C551.066 147.631 552.475 147.47 553.861 147.653C555.247 147.835 556.566 148.357 557.702 149.171V149.171Z" fill="#FFBF5B"/>
<path d="M553.808 128.184C553.808 128.446 552.323 128.359 550.7 128.847C549.076 129.336 547.871 130.122 547.697 129.93C547.522 129.738 548.57 128.498 550.438 127.974C552.306 127.451 553.877 127.957 553.808 128.184Z" fill="#FFBF5B"/>
<path d="M392.198 257.44C398.379 253.425 406.568 254.751 413.587 257.074C420.606 259.396 427.642 262.609 434.993 261.91C443.007 261.159 449.869 255.817 455.159 249.775C461.696 242.306 466.559 233.525 469.424 224.022C472.322 214.349 473.806 202.983 482.135 197.256C490.463 191.529 502.022 194.41 509.18 201.184C516.339 207.959 519.796 217.736 522.066 227.374C527.304 249.583 527.391 273.277 520.197 294.944C513.004 316.612 498.215 336.028 478.136 346.888C458.057 357.748 432.74 359.302 412.312 349.14" fill="#FFBF5B"/>
<path d="M412.312 349.088C412.633 349.199 412.948 349.327 413.255 349.472L415.979 350.659C417.201 351.131 418.72 351.689 420.518 352.405C422.317 353.121 424.447 353.61 426.874 354.151C432.756 355.422 438.774 355.956 444.788 355.74C448.54 355.589 452.275 355.157 455.962 354.448C460.099 353.693 464.16 352.571 468.097 351.096C477.169 347.706 485.529 342.656 492.75 336.202C501.062 328.847 507.976 320.052 513.161 310.239C518.884 299.4 522.632 287.629 524.231 275.477C525.952 262.427 525.67 249.191 523.393 236.226C522.344 229.649 520.702 223.18 518.486 216.898C516.406 210.786 512.842 205.285 508.115 200.887C503.448 196.766 497.385 194.58 491.162 194.776C488.182 194.905 485.288 195.808 482.763 197.395C480.326 199.004 478.294 201.156 476.827 203.681C473.824 208.64 472.532 214.297 471.065 219.639C469.778 224.909 467.928 230.025 465.548 234.9C463.309 239.447 460.574 243.733 457.394 247.68C454.52 251.383 451.134 254.658 447.337 257.405C443.872 259.937 439.836 261.575 435.586 262.172C431.79 262.518 427.962 262.109 424.325 260.967C417.533 258.959 411.98 256.375 407.074 255.59C403.359 254.765 399.499 254.861 395.83 255.869C394.889 256.164 393.978 256.544 393.106 257.004C392.513 257.336 392.198 257.475 392.198 257.475L393.054 256.934C393.911 256.43 394.818 256.015 395.76 255.694C399.457 254.594 403.371 254.437 407.144 255.24C412.103 255.991 417.725 258.54 424.464 260.478C428.039 261.576 431.795 261.956 435.516 261.596C439.664 260.991 443.599 259.372 446.97 256.882C450.707 254.156 454.034 250.911 456.853 247.244C459.973 243.32 462.66 239.07 464.867 234.568C467.216 229.732 469.037 224.657 470.297 219.43C471.746 214.105 473.021 208.378 476.111 203.245C477.636 200.602 479.759 198.354 482.309 196.68C484.926 195.006 487.936 194.049 491.039 193.903C494.207 193.756 497.372 194.249 500.345 195.353C503.386 196.445 506.197 198.091 508.639 200.206C513.473 204.7 517.12 210.321 519.255 216.567C521.497 222.909 523.157 229.443 524.213 236.087C526.52 249.137 526.797 262.464 525.034 275.599C523.415 287.854 519.619 299.721 513.825 310.641C508.583 320.55 501.584 329.424 493.169 336.831C485.86 343.286 477.411 348.319 468.254 351.672C464.285 353.134 460.195 354.244 456.032 354.989C452.314 355.676 448.549 356.085 444.77 356.212C438.714 356.393 432.66 355.806 426.752 354.466C424.325 353.942 422.229 353.243 420.396 352.72C418.563 352.196 417.079 351.48 415.874 350.974L413.185 349.699C412.609 349.263 412.312 349.088 412.312 349.088Z" fill="#263238"/>
<path d="M487.46 217.736C486.566 216.997 485.849 216.066 485.365 215.012C484.046 212.519 483.385 209.731 483.444 206.911C483.478 204.096 484.216 201.335 485.592 198.879C486.097 197.828 486.845 196.913 487.774 196.208C487.896 196.313 487.058 197.325 486.168 199.176C485.011 201.6 484.392 204.245 484.353 206.93C484.313 209.615 484.855 212.277 485.941 214.733C486.796 216.601 487.599 217.649 487.46 217.736Z" fill="#263238"/>
<path d="M498.058 216.2C497.259 215.376 496.63 214.403 496.207 213.336C495.037 210.809 494.35 208.085 494.182 205.305C494.007 202.527 494.363 199.742 495.23 197.098C495.512 195.984 496.017 194.939 496.714 194.025C495.409 197.617 494.856 201.438 495.087 205.252C495.318 209.066 496.329 212.792 498.058 216.2Z" fill="#263238"/>
<path d="M506.544 219.22C505.441 216.572 504.986 213.699 505.217 210.839C505.14 207.97 505.738 205.124 506.963 202.528C507.225 202.616 506.229 206.247 506.125 210.857C506.02 215.466 506.806 219.22 506.544 219.22Z" fill="#263238"/>
<path d="M652.317 241.045C636.342 250.788 615.093 248.937 598.541 240.19C581.989 231.442 569.452 216.793 558.994 201.428C556.026 197.063 553.022 192.437 548.413 189.8C539.351 184.562 526.832 189.625 521.629 198.53C516.426 207.435 517.404 218.853 521.42 228.387C521.42 228.387 532.07 279.998 587.593 312.09" fill="#FFBF5B"/>
<path d="M587.593 312.143C587.424 312.086 587.265 312.003 587.121 311.898L585.759 311.095C584.537 310.344 582.809 309.262 580.521 307.9C579.421 307.166 578.095 306.468 576.785 305.49L572.507 302.365C570.988 301.195 569.242 300.095 567.601 298.646L562.363 294.159C553.722 286.419 546.037 277.673 539.473 268.108C535.511 262.352 532.008 256.292 528.997 249.985C525.614 243.124 522.947 235.933 521.035 228.527V228.614C518.379 222.537 517.269 215.896 517.805 209.286C518.144 205.834 519.127 202.476 520.704 199.386C522.756 195.489 525.906 192.277 529.762 190.149C533.619 188.021 538.014 187.068 542.406 187.408C544.964 187.712 547.418 188.596 549.582 189.992C551.653 191.405 553.49 193.131 555.03 195.108C556.584 197.029 557.946 199.054 559.273 201.027C560.6 203 561.979 204.938 563.341 206.824C566.1 210.613 568.928 214.227 571.844 217.597C577.314 224.041 583.547 229.799 590.404 234.742C596.393 239.045 603.038 242.352 610.081 244.537C620.251 247.848 631.154 248.187 641.509 245.515C642.373 245.303 643.224 245.04 644.058 244.729C644.844 244.45 645.595 244.223 646.258 243.944C647.585 243.35 648.738 242.896 649.611 242.442L651.619 241.377C651.842 241.247 652.075 241.136 652.317 241.045C652.114 241.203 651.897 241.343 651.671 241.464L649.698 242.599C648.825 243.088 647.69 243.56 646.363 244.188C645.682 244.485 644.949 244.73 644.163 245.026C643.325 245.358 642.468 245.638 641.596 245.864C631.164 248.704 620.131 248.455 609.837 245.149C602.72 242.986 596.003 239.677 589.95 235.353C583.023 230.399 576.725 224.617 571.198 218.138C568.247 214.751 565.401 211.154 562.625 207.348C561.246 205.445 559.884 203.489 558.539 201.516C557.195 199.543 555.85 197.535 554.331 195.667C552.844 193.771 551.078 192.111 549.093 190.743C547.045 189.424 544.722 188.594 542.302 188.316C537.282 187.859 532.268 189.242 528.194 192.21C525.458 194.208 523.19 196.778 521.55 199.743C519.909 202.707 518.935 205.994 518.696 209.373C518.178 215.833 519.257 222.321 521.838 228.265V228.352C523.722 235.708 526.355 242.852 529.695 249.671C532.713 255.952 536.215 261.988 540.171 267.724C546.679 277.266 554.298 285.999 562.869 293.74L568.107 298.262C569.731 299.728 571.46 300.829 572.944 302.016L577.187 305.193C578.479 306.189 579.788 306.94 580.888 307.638L586.004 310.955L587.313 311.828C587.416 311.925 587.509 312.03 587.593 312.143V312.143Z" fill="#263238"/>
<path d="M536.436 219.028C535.113 214.809 533.253 210.777 530.901 207.033C526.815 200.922 521.612 197.709 521.822 197.465C523.039 197.971 524.165 198.673 525.156 199.543C530.203 203.528 533.897 208.973 535.737 215.134C536.194 216.382 536.43 217.699 536.436 219.028V219.028Z" fill="#263238"/>
<path d="M547.226 212.027C546.538 207.596 545.27 203.275 543.454 199.176C541.36 195.213 538.76 191.539 535.72 188.246C536.868 188.941 537.899 189.813 538.775 190.83C541.009 193.184 542.864 195.87 544.275 198.792C545.679 201.71 546.633 204.824 547.104 208.028C547.374 209.344 547.415 210.697 547.226 212.027V212.027Z" fill="#263238"/>
<g opacity="0.3">
<path opacity="0.3" d="M511.135 314.5C515.483 307.847 497.569 306.276 489.677 307.201C478.119 308.529 467.466 314.105 459.787 322.845C452.108 331.585 447.951 342.867 448.122 354.5C448.122 354.5 482.623 358.184 511.135 314.5Z" fill="white"/>
</g>
<g opacity="0.3">
<path opacity="0.3" d="M540.556 284.8C549.633 298.683 563.093 309.132 578.793 314.482C580.44 315.197 582.251 315.45 584.031 315.215C584.909 315.086 585.714 314.654 586.307 313.994C586.9 313.334 587.244 312.487 587.279 311.601C568.614 301.447 552.616 287.022 540.591 269.505C539.674 274.878 540.443 280.404 542.791 285.324" fill="black"/>
</g>
<path d="M516.534 166.978C531.91 151.602 531.91 126.673 516.534 111.297C501.158 95.921 476.229 95.9209 460.853 111.297C445.477 126.673 445.477 151.602 460.853 166.978C476.229 182.353 501.158 182.353 516.534 166.978Z" fill="#F5F5F5"/>
<path d="M528.02 140.79C528.02 159.804 518.033 175.71 506.911 175.71C495.789 175.71 486.762 160.293 486.762 141.296C486.762 122.3 495.789 106.883 506.911 106.883C518.033 106.883 528.02 121.794 528.02 140.79Z" fill="#263238"/>
<path d="M497.115 157.115C496.786 156.725 496.515 156.29 496.312 155.823C495.68 154.589 495.138 153.311 494.688 151.999C491.647 143.236 491.902 133.665 495.404 125.076C495.921 123.789 496.54 122.545 497.255 121.357C497.476 120.898 497.764 120.474 498.11 120.1C498.25 120.1 497.203 122.055 496.015 125.338C494.484 129.577 493.635 134.032 493.501 138.537C493.385 143.036 493.974 147.525 495.247 151.842C496.312 155.107 497.272 157.045 497.115 157.115Z" fill="white"/>
<path d="M511.939 125.966C515.661 125.966 518.678 122.949 518.678 119.227C518.678 115.505 515.661 112.487 511.939 112.487C508.217 112.487 505.199 115.505 505.199 119.227C505.199 122.949 508.217 125.966 511.939 125.966Z" fill="white"/>
<path d="M514.191 90.5401C513.44 91.5702 511.537 91.5527 509.145 91.1686C506.753 90.7845 503.75 90.0861 500.502 89.5623C497.255 89.0385 494.321 88.7242 491.964 88.3925C489.607 88.0607 487.791 87.5893 487.32 86.402C486.848 85.2147 487.983 83.5211 490.637 82.1069C492.198 81.309 493.879 80.7723 495.613 80.518C497.731 80.1874 499.886 80.1874 502.004 80.518C505.82 81.0973 509.373 82.8131 512.2 85.4417C514.296 87.6068 514.907 89.5448 514.191 90.5401Z" fill="#263238"/>
<path d="M496.347 188.299C493.308 182.054 492.639 174.919 494.464 168.218C496.289 161.517 500.485 155.707 506.271 151.866C512.058 148.026 519.042 146.416 525.925 147.336C532.809 148.257 539.124 151.645 543.698 156.871" fill="#FFBF5B"/>
<path d="M543.734 156.871C543.734 156.871 542.896 156.085 541.342 154.74C539.122 152.856 536.625 151.325 533.939 150.201C529.971 148.523 525.693 147.701 521.385 147.791C516.089 147.742 510.899 149.277 506.482 152.198C502.064 155.119 498.62 159.294 496.592 164.186C494.839 168.121 493.935 172.38 493.938 176.688C493.937 179.595 494.379 182.486 495.247 185.261C495.876 187.216 496.365 188.264 496.278 188.299C496.115 188.077 495.98 187.837 495.876 187.583C495.509 186.871 495.189 186.136 494.916 185.383C493.887 182.585 493.344 179.633 493.309 176.653C493.193 172.236 494.051 167.849 495.824 163.802C497.872 158.75 501.398 154.434 505.94 151.418C510.482 148.403 515.829 146.828 521.28 146.901C525.696 146.849 530.069 147.761 534.096 149.572C536.808 150.764 539.299 152.405 541.464 154.426C542.057 154.969 542.611 155.552 543.123 156.172C543.355 156.379 543.56 156.613 543.734 156.871V156.871Z" fill="#263238"/>
<path d="M418.162 39.2075C417.883 39.3542 417.582 39.4545 417.271 39.5044L414.67 40.2028C413.535 40.4821 412.155 40.8837 410.567 41.3726L408.035 42.1234L405.206 43.0836C394.943 46.6702 385.097 51.3533 375.839 57.0516C366.568 62.7697 357.701 69.1168 349.299 76.0481C346.069 78.7021 343.468 80.8671 341.704 82.4036L339.627 84.1496C339.155 84.5512 338.893 84.7432 338.858 84.7083C339.048 84.4583 339.265 84.23 339.504 84.0274L341.46 82.1591C343.206 80.5528 345.703 78.3179 348.88 75.5767C357.203 68.5042 366.058 62.0832 375.367 56.3707C384.678 50.5916 394.642 45.938 405.049 42.5075L407.895 41.5821L410.479 40.9011C412.086 40.4472 413.465 40.098 414.617 39.871L417.271 39.3472C417.561 39.2649 417.86 39.218 418.162 39.2075Z" fill="#263238"/>
</svg>
