<svg width="19" height="41" viewBox="0 0 19 41" fill="none" xmlns="http://www.w3.org/2000/svg">
<path d="M9.06902 19.0449C14.0777 19.0449 18.138 15.7966 18.138 11.7896C18.138 7.78269 14.0777 4.53442 9.06902 4.53442C4.06034 4.53442 0 7.78269 0 11.7896C0 15.7966 4.06034 19.0449 9.06902 19.0449Z" fill="#595959"/>
<path fill-rule="evenodd" clip-rule="evenodd" d="M0.126026 39.3066C0.0431445 38.3212 0 37.3087 0 36.2761C0 26.2587 4.06034 18.138 9.06902 18.138C14.0777 18.138 18.138 26.2587 18.138 36.2761C18.138 37.3087 18.0949 38.3212 18.012 39.3066C15.2111 40.2811 12.2019 40.8106 9.06902 40.8106C5.93614 40.8106 2.92694 40.2811 0.126026 39.3066ZM5.99691 5.48482C5.99691 5.48482 4.22367 1.40639 2.24056 0C2.24056 0 0.106905 5.60067 1.23711 10.2466" fill="#595959"/>
<path fill-rule="evenodd" clip-rule="evenodd" d="M11.7904 5.48482C11.7904 5.48482 13.5636 1.40639 15.5467 0C15.5467 0 17.6804 5.60067 16.5502 10.2466" fill="#595959"/>
</svg>
