<svg width="37" height="44" viewBox="0 0 37 44" fill="none" xmlns="http://www.w3.org/2000/svg">
<path fill-rule="evenodd" clip-rule="evenodd" d="M11.6566 8.69495C10.7544 8.44433 9.78531 8.30816 8.77647 8.30816C7.6556 8.30816 6.5838 8.47625 5.59832 8.78265C5.08801 7.71177 3.69217 5.00064 2.16828 3.91992C2.16828 3.91992 0.571435 8.11152 0.930151 12.1802C0.335045 13.1273 0 14.197 0 15.3293C0 18.5608 2.72883 21.2824 6.44355 22.0998C2.72883 24.1432 0 30.9471 0 39.0258C0 40.0251 0.0417527 41.0049 0.121961 41.9586C2.83252 42.9016 5.74465 43.414 8.77647 43.414C11.8083 43.414 14.7204 42.9016 17.431 41.9586C17.5112 41.0049 17.5529 40.0251 17.5529 39.0258C17.5529 30.9471 14.8241 24.1432 11.1094 22.0997C14.8241 21.2824 17.5529 18.5608 17.5529 15.3293C17.5529 14.0142 17.101 12.7835 16.3145 11.7313C16.5262 7.80907 15.0446 3.91992 15.0446 3.91992C13.5607 4.97226 12.1983 7.57051 11.6566 8.69495Z" fill="#FFBF5B"/>
<path d="M27.7765 17.5529C32.6236 17.5529 36.5529 13.6236 36.5529 8.77647C36.5529 3.92936 32.6236 0 27.7765 0C22.9294 0 19 3.92936 19 8.77647C19 13.6236 22.9294 17.5529 27.7765 17.5529Z" fill="#FFBF5B"/>
<path d="M32.2534 4.0002L28.0345 13.0566L24 9.82427" stroke="white" stroke-width="1.75529" stroke-linecap="square"/>
</svg>
